<svg width="1280" height="186" viewBox="0 0 1280 186" fill="none" xmlns="http://www.w3.org/2000/svg">
<rect width="1280" height="186" fill="url(#paint0_linear_101_2)"/>
<path d="M1009 144.5C1039.8 155.3 993.167 176 966 185L1279.5 185.5V19.5L1136.5 22.5C1101.3 23.3 1095.17 30.5 1096.5 34C1103.3 42.8 1164.33 45.3333 1194 45.5C1211.6 49.1 1204 55.3333 1198 58C1182.4 70 1129.83 75.3333 1105.5 76.5L1014 82C1000 83.2 1000.83 90.5 1003 94C1017 100.8 1071.17 105.167 1096.5 106.5C1135.7 118.9 1092.83 119 1066.5 117.5C997.7 110.3 962.833 115.833 954 119.5C945.6 128.7 987.167 140 1009 144.5Z" fill="url(#paint1_linear_101_2)"/>
<path d="M533.5 87.5L620 77H514.5L435 96C409 98 444.167 106.833 465 111C475 113.8 470.833 116.833 467.5 118C426.3 118.8 381 126 363.5 129.5C351.1 133.5 366.333 138.5 375.5 140.5L508 148.5C532.8 156.5 507.333 166.833 491.5 171L351 185H730L606.5 114C616.5 107.2 601 104.833 592 104.5L508 101.5C486 97.1 515.833 90.3333 533.5 87.5Z" fill="url(#paint2_linear_101_2)"/>
<rect y="137" width="1280" height="48" fill="url(#paint3_linear_101_2)"/>
<defs>
<linearGradient id="paint0_linear_101_2" x1="640" y1="0" x2="640" y2="186" gradientUnits="userSpaceOnUse">
<stop stop-color="#682C32"/>
<stop offset="1" stop-color="#021B3A"/>
</linearGradient>
<linearGradient id="paint1_linear_101_2" x1="1116.2" y1="19.5" x2="1105" y2="141.5" gradientUnits="userSpaceOnUse">
<stop stop-color="#512732"/>
<stop offset="1" stop-color="#071C3C"/>
</linearGradient>
<linearGradient id="paint2_linear_101_2" x1="540.5" y1="77" x2="540.5" y2="185" gradientUnits="userSpaceOnUse">
<stop stop-color="#091C3A"/>
<stop offset="1" stop-color="#25213A"/>
</linearGradient>
<linearGradient id="paint3_linear_101_2" x1="640" y1="137" x2="640" y2="185" gradientUnits="userSpaceOnUse">
<stop stop-color="#020413" stop-opacity="0"/>
<stop offset="1" stop-color="#020413"/>
</linearGradient>
</defs>
</svg>
