<svg width="877" height="362" viewBox="0 0 877 362" fill="none" xmlns="http://www.w3.org/2000/svg">
<path d="M140.5 32.5L71 56L0.5 84.5L23 127L315.5 61L245.5 32.5C210.7 16.5 161 25.8333 140.5 32.5Z" fill="url(#paint0_linear_5_5)"/>
<path d="M730 9.99999L877 55L771.5 134.5L477.5 55L619 9.99999C664.2 -8.00001 711.833 2.49999 730 9.99999Z" fill="url(#paint1_linear_5_5)"/>
<path d="M268.5 52.5L57 106.5L310 361.5H515.5L631 310.5L753 118.5L427 26.5C392.2 16.5 306.833 39.6667 268.5 52.5Z" fill="url(#paint2_linear_5_5)"/>
<defs>
<linearGradient id="paint0_linear_5_5" x1="158" y1="23.6656" x2="158" y2="127" gradientUnits="userSpaceOnUse">
<stop stop-color="#3C3B5E"/>
<stop offset="1" stop-color="#875460"/>
</linearGradient>
<linearGradient id="paint1_linear_5_5" x1="677.25" y1="0.061264" x2="677.25" y2="134.5" gradientUnits="userSpaceOnUse">
<stop stop-color="#3B3A5E"/>
<stop offset="1" stop-color="#865460"/>
</linearGradient>
<linearGradient id="paint2_linear_5_5" x1="405" y1="24.0618" x2="405" y2="418" gradientUnits="userSpaceOnUse">
<stop stop-color="#393A5E"/>
<stop offset="1" stop-color="#CC6B62"/>
</linearGradient>
</defs>
</svg>
