<svg width="20" height="20" viewBox="0 0 20 20" fill="none" xmlns="http://www.w3.org/2000/svg">
<path d="M19.799 9.94051C19.799 4.4728 15.3672 0.0410156 9.8995 0.0410156C4.43179 0.0410156 0 4.4728 0 9.94051C0 14.8817 3.62009 18.9772 8.35271 19.7194V12.8014H5.83953V9.93909H8.35271V7.75797C8.35271 5.27742 9.82996 3.90659 12.092 3.90659C13.1747 3.90659 14.3086 4.09958 14.3086 4.09958V6.53614H13.0598C11.8294 6.53614 11.4463 7.2996 11.4463 8.08152V9.93909H14.1922L13.7537 12.8014H11.4477V19.7194C16.1803 18.9772 19.8004 14.8817 19.8004 9.94051H19.799Z" fill="white"/>
</svg>
