<svg width="450" height="450" viewBox="0 0 450 450" fill="none" xmlns="http://www.w3.org/2000/svg">
<rect x="88" y="83" width="64" height="22" fill="#050922"/>
<rect x="18" y="83" width="64" height="22" fill="url(#paint0_linear_117_2)"/>
<rect x="88" y="167" width="64" height="22" fill="#050922"/>
<rect x="18" y="167" width="64" height="22" fill="url(#paint1_linear_117_2)"/>
<rect x="88" y="251" width="64" height="22" fill="#050922"/>
<rect x="18" y="251" width="64" height="22" fill="url(#paint2_linear_117_2)"/>
<rect x="88" y="335" width="64" height="22" fill="#050922"/>
<rect x="18" y="335" width="64" height="22" fill="url(#paint3_linear_117_2)"/>
<rect x="88" y="391" width="64" height="22" fill="url(#paint4_linear_117_2)"/>
<rect x="18" y="391" width="64" height="22" fill="url(#paint5_linear_117_2)"/>
<rect x="88" y="55" width="64" height="22" fill="url(#paint6_linear_117_2)"/>
<rect x="18" y="55" width="64" height="22" fill="url(#paint7_linear_117_2)"/>
<rect x="88" y="139" width="64" height="22" fill="#050922"/>
<rect x="18" y="139" width="64" height="22" fill="url(#paint8_linear_117_2)"/>
<rect x="88" y="223" width="64" height="22" fill="#050922"/>
<rect x="18" y="223" width="64" height="22" fill="url(#paint9_linear_117_2)"/>
<rect x="88" y="307" width="64" height="22" fill="#050922"/>
<rect x="18" y="307" width="64" height="22" fill="url(#paint10_linear_117_2)"/>
<rect x="88" y="363" width="64" height="22" fill="url(#paint11_linear_117_2)"/>
<rect x="18" y="363" width="64" height="22" fill="url(#paint12_linear_117_2)"/>
<rect x="88" y="27" width="64" height="22" fill="url(#paint13_linear_117_2)"/>
<rect x="18" y="27" width="64" height="22" fill="url(#paint14_linear_117_2)"/>
<rect x="88" y="111" width="64" height="22" fill="#050922"/>
<rect x="18" y="111" width="64" height="22" fill="url(#paint15_linear_117_2)"/>
<rect x="88" y="195" width="64" height="22" fill="#050922"/>
<rect x="18" y="195" width="64" height="22" fill="url(#paint16_linear_117_2)"/>
<rect x="88" y="279" width="64" height="22" fill="#050922"/>
<rect x="18" y="279" width="64" height="22" fill="url(#paint17_linear_117_2)"/>
<rect x="158" y="83" width="64" height="22" fill="#050922"/>
<rect x="158" y="167" width="64" height="22" fill="#050922"/>
<rect x="158" y="251" width="64" height="22" fill="#050922"/>
<rect x="158" y="335" width="64" height="22" fill="#050922"/>
<rect x="158" y="391" width="64" height="22" fill="url(#paint18_linear_117_2)"/>
<rect x="158" y="55" width="64" height="22" fill="#050922"/>
<rect x="158" y="139" width="64" height="22" fill="#050922"/>
<rect x="158" y="223" width="64" height="22" fill="#050922"/>
<rect x="158" y="307" width="64" height="22" fill="#050922"/>
<rect x="158" y="363" width="64" height="22" fill="#050922"/>
<rect x="158" y="27" width="64" height="22" fill="url(#paint19_linear_117_2)"/>
<rect x="158" y="111" width="64" height="22" fill="#050922"/>
<rect x="158" y="195" width="64" height="22" fill="#050922"/>
<rect x="158" y="279" width="64" height="22" fill="#050922"/>
<rect x="228" y="83" width="64" height="22" fill="#050922"/>
<rect x="228" y="167" width="64" height="22" fill="#050922"/>
<rect x="228" y="251" width="64" height="22" fill="#050922"/>
<rect x="228" y="335" width="64" height="22" fill="#050922"/>
<rect x="228" y="391" width="64" height="22" fill="url(#paint20_linear_117_2)"/>
<rect x="228" y="55" width="64" height="22" fill="#050922"/>
<rect x="228" y="139" width="64" height="22" fill="#050922"/>
<rect x="228" y="223" width="64" height="22" fill="#050922"/>
<rect x="228" y="307" width="64" height="22" fill="#050922"/>
<rect x="228" y="363" width="64" height="22" fill="#050922"/>
<rect x="228" y="27" width="64" height="22" fill="url(#paint21_linear_117_2)"/>
<rect x="228" y="111" width="64" height="22" fill="#050922"/>
<rect x="228" y="195" width="64" height="22" fill="#050922"/>
<rect x="228" y="279" width="64" height="22" fill="#050922"/>
<rect x="298" y="83" width="64" height="22" fill="#050922"/>
<rect x="298" y="167" width="64" height="22" fill="#050922"/>
<rect x="298" y="251" width="64" height="22" fill="#050922"/>
<rect x="298" y="335" width="64" height="22" fill="#050922"/>
<rect x="298" y="391" width="64" height="22" fill="url(#paint22_linear_117_2)"/>
<rect x="298" y="55" width="64" height="22" fill="url(#paint23_linear_117_2)"/>
<rect x="298" y="139" width="64" height="22" fill="#050922"/>
<rect x="298" y="223" width="64" height="22" fill="#050922"/>
<rect x="298" y="307" width="64" height="22" fill="#050922"/>
<rect x="298" y="363" width="64" height="22" fill="url(#paint24_linear_117_2)"/>
<rect x="298" y="27" width="64" height="22" fill="url(#paint25_linear_117_2)"/>
<rect x="298" y="111" width="64" height="22" fill="#050922"/>
<rect x="298" y="195" width="64" height="22" fill="#050922"/>
<rect x="298" y="279" width="64" height="22" fill="#050922"/>
<rect x="368" y="83" width="64" height="22" fill="url(#paint26_linear_117_2)"/>
<rect x="368" y="167" width="64" height="22" fill="url(#paint27_linear_117_2)"/>
<rect x="368" y="251" width="64" height="22" fill="url(#paint28_linear_117_2)"/>
<rect x="368" y="335" width="64" height="22" fill="url(#paint29_linear_117_2)"/>
<rect x="368" y="391" width="64" height="22" fill="url(#paint30_linear_117_2)"/>
<rect x="368" y="55" width="64" height="22" fill="url(#paint31_linear_117_2)"/>
<rect x="368" y="139" width="64" height="22" fill="url(#paint32_linear_117_2)"/>
<rect x="368" y="223" width="64" height="22" fill="url(#paint33_linear_117_2)"/>
<rect x="368" y="307" width="64" height="22" fill="url(#paint34_linear_117_2)"/>
<rect x="368" y="363" width="64" height="22" fill="url(#paint35_linear_117_2)"/>
<rect x="368" y="27" width="64" height="22" fill="url(#paint36_linear_117_2)"/>
<rect x="368" y="111" width="64" height="22" fill="url(#paint37_linear_117_2)"/>
<rect x="368" y="195" width="64" height="22" fill="url(#paint38_linear_117_2)"/>
<rect x="368" y="279" width="64" height="22" fill="url(#paint39_linear_117_2)"/>
<path d="M322 419C235.6 438.2 155.667 427 126.5 419V411H322V419Z" fill="#14152A"/>
<path d="M322 417C271.2 424.2 181.167 420 142.5 417L232.5 390L322 417Z" fill="url(#paint40_linear_117_2)"/>
<path d="M267 423.5C256.2 422.7 242.833 409.5 237.5 403V397L263 406.5C272.6 411.7 269.667 420 267 423.5Z" fill="url(#paint41_linear_117_2)"/>
<path d="M333.5 377.5C331.9 393.9 321.5 399.333 316.5 400L257 390.5L294.5 338C302.9 337.6 312.667 344.5 316.5 348C322.5 331.6 337.667 325.5 344.5 324.5C342.5 324.9 337 332.667 334.5 336.5C331.3 342.5 332.5 366.333 333.5 377.5Z" fill="url(#paint42_linear_117_2)"/>
<path d="M281.5 305C272.7 314.2 269.833 330.167 269.5 337L233.5 331L206.5 305C184.9 284.2 197.5 253.333 206.5 240.5C201.7 233.3 200.833 195.833 201 178C211 204 226.833 196.167 233.5 189C247.9 175.8 246.167 133.5 243.5 114C251.9 128 261.667 150.167 265.5 159.5C269.9 183.5 262.333 210.5 258 221C252 235 249.167 249.5 248.5 255C253.7 249 270.667 242.167 278.5 239.5C297.3 233.1 303.333 209.5 304 198.5C306.4 209.3 305 242.667 304 258C301.6 279.6 288 298.333 281.5 305Z" fill="url(#paint43_linear_117_2)"/>
<path d="M152.5 245C159.7 256.6 162.833 270.833 163.5 276.5L199 247C197.8 239 182.5 219 175 210C166.6 199.2 171.5 188.5 175 184.5C184.2 172.5 182.833 158.5 181 153C183 163.4 172.833 172 167.5 175C153.1 183 146.5 199 145 206C141 220.8 148.333 238.167 152.5 245Z" fill="url(#paint44_linear_117_2)"/>
<path d="M175 257.5C159 269.9 150 290.333 147.5 299L161.5 312L219 328.5L230.5 313.5L209.5 289C196.3 276.2 201.667 258.333 206 251C215.2 239 216.167 225 215.5 219.5C215.1 233.5 206.333 239.667 202 241C193.2 243.4 180.333 253 175 257.5Z" fill="url(#paint45_linear_117_2)"/>
<path d="M130 322C122 280.4 137.667 255 146.5 247.5C135.7 270.3 146.667 291 153.5 298.5C161.5 308.1 198.833 318.167 216.5 322L198.5 390L157 374C140.6 363.6 132.167 335 130 322Z" fill="url(#paint46_linear_117_2)"/>
<path d="M118 362C115.6 384 130.333 396.167 138 399.5L187.5 393L147.5 359.5L133 337C123 321.8 113.5 318.333 110 318.5C122 330.5 120.333 352.5 118 362Z" fill="url(#paint47_linear_117_2)"/>
<path d="M215.5 316C191.1 336.4 193.333 375.167 197.5 392L303.5 374C311.9 362.8 309 351.667 306.5 347.5C303.7 341.5 297.667 332.667 295 329C287.4 316.6 299.5 293.833 306.5 284C288.9 286.4 279.833 311.667 277.5 324C270.7 339.6 261 336.167 257 332.5C248.6 322.9 257.833 309.833 263.5 304.5C279.9 289.7 288.333 268.667 290.5 260C294.9 240.8 287.667 222.667 283.5 216C285.5 226.8 285.333 242.5 285 249C283 267.4 265.5 280 257 284C240.6 292.4 222.5 308.833 215.5 316Z" fill="url(#paint48_linear_117_2)"/>
<path d="M269 413L241 407L238 403.5L266 406L269 413Z" fill="#562008"/>
<path d="M323.5 399L142.5 364.5C131.7 372.1 136.667 380.667 140.5 384L317 420.5L323.5 399Z" fill="url(#paint49_linear_117_2)"/>
<path d="M222.207 424.5C214.607 424.5 214.04 409.167 214.707 401.5L226.707 397L235.207 401.5C236.407 421.5 227.04 425.167 222.207 424.5Z" fill="url(#paint50_linear_117_2)"/>
<path d="M235.5 407H214.5V403.5L225.5 399L235.5 401.5V407Z" fill="#471806"/>
<path d="M245 405.5L298 394L275 389.5L222.5 401L245 405.5Z" fill="#3B0D0F"/>
<path d="M182.1 423.5C192.863 422.715 206.185 409.764 211.5 403.387V397.5L186.086 406.821C176.519 411.923 179.442 420.066 182.1 423.5Z" fill="url(#paint51_linear_117_2)"/>
<path d="M206.5 409L179.5 414.5C179.5 413.7 180.5 411.833 181 411L212 402.5L206.5 409Z" fill="#340D06"/>
<path d="M305 366.5L127.5 399L132 421.5L307 385C314.2 382.2 315 377.5 314.5 375.5C314.5 369.1 308.167 366.833 305 366.5Z" fill="url(#paint52_linear_117_2)"/>
<defs>
<linearGradient id="paint0_linear_117_2" x1="82" y1="94" x2="22" y2="94" gradientUnits="userSpaceOnUse">
<stop stop-color="#050922"/>
<stop offset="1" stop-color="#050922" stop-opacity="0"/>
</linearGradient>
<linearGradient id="paint1_linear_117_2" x1="82" y1="178" x2="22" y2="178" gradientUnits="userSpaceOnUse">
<stop stop-color="#050922"/>
<stop offset="1" stop-color="#050922" stop-opacity="0"/>
</linearGradient>
<linearGradient id="paint2_linear_117_2" x1="82" y1="262" x2="22" y2="262" gradientUnits="userSpaceOnUse">
<stop stop-color="#050922"/>
<stop offset="1" stop-color="#050922" stop-opacity="0"/>
</linearGradient>
<linearGradient id="paint3_linear_117_2" x1="82" y1="346" x2="22" y2="346" gradientUnits="userSpaceOnUse">
<stop stop-color="#050922"/>
<stop offset="1" stop-color="#050922" stop-opacity="0"/>
</linearGradient>
<linearGradient id="paint4_linear_117_2" x1="123" y1="373" x2="112" y2="410.5" gradientUnits="userSpaceOnUse">
<stop stop-color="#050922"/>
<stop offset="1" stop-color="#050922" stop-opacity="0"/>
</linearGradient>
<linearGradient id="paint5_linear_117_2" x1="113.5" y1="346" x2="59.5" y2="407" gradientUnits="userSpaceOnUse">
<stop stop-color="#050922"/>
<stop offset="1" stop-color="#050922" stop-opacity="0"/>
</linearGradient>
<linearGradient id="paint6_linear_117_2" x1="120" y1="77" x2="100" y2="28.5" gradientUnits="userSpaceOnUse">
<stop stop-color="#050922"/>
<stop offset="1" stop-color="#050922" stop-opacity="0"/>
</linearGradient>
<linearGradient id="paint7_linear_117_2" x1="95" y1="100" x2="32" y2="52" gradientUnits="userSpaceOnUse">
<stop stop-color="#050922"/>
<stop offset="1" stop-color="#050922" stop-opacity="0"/>
</linearGradient>
<linearGradient id="paint8_linear_117_2" x1="82" y1="150" x2="22" y2="150" gradientUnits="userSpaceOnUse">
<stop stop-color="#050922"/>
<stop offset="1" stop-color="#050922" stop-opacity="0"/>
</linearGradient>
<linearGradient id="paint9_linear_117_2" x1="82" y1="234" x2="22" y2="234" gradientUnits="userSpaceOnUse">
<stop stop-color="#050922"/>
<stop offset="1" stop-color="#050922" stop-opacity="0"/>
</linearGradient>
<linearGradient id="paint10_linear_117_2" x1="82" y1="318" x2="22" y2="318" gradientUnits="userSpaceOnUse">
<stop stop-color="#050922"/>
<stop offset="1" stop-color="#050922" stop-opacity="0"/>
</linearGradient>
<linearGradient id="paint11_linear_117_2" x1="120" y1="363" x2="108.5" y2="403" gradientUnits="userSpaceOnUse">
<stop stop-color="#050922"/>
<stop offset="1" stop-color="#050922" stop-opacity="0"/>
</linearGradient>
<linearGradient id="paint12_linear_117_2" x1="113.5" y1="328.5" x2="22" y2="374" gradientUnits="userSpaceOnUse">
<stop stop-color="#050922"/>
<stop offset="1" stop-color="#050922" stop-opacity="0"/>
</linearGradient>
<linearGradient id="paint13_linear_117_2" x1="124" y1="63" x2="120" y2="27" gradientUnits="userSpaceOnUse">
<stop stop-color="#050922"/>
<stop offset="1" stop-color="#050922" stop-opacity="0"/>
</linearGradient>
<linearGradient id="paint14_linear_117_2" x1="110.5" y1="81.5" x2="62" y2="31" gradientUnits="userSpaceOnUse">
<stop stop-color="#050922"/>
<stop offset="1" stop-color="#050922" stop-opacity="0"/>
</linearGradient>
<linearGradient id="paint15_linear_117_2" x1="82" y1="122" x2="22" y2="122" gradientUnits="userSpaceOnUse">
<stop stop-color="#050922"/>
<stop offset="1" stop-color="#050922" stop-opacity="0"/>
</linearGradient>
<linearGradient id="paint16_linear_117_2" x1="82" y1="206" x2="22" y2="206" gradientUnits="userSpaceOnUse">
<stop stop-color="#050922"/>
<stop offset="1" stop-color="#050922" stop-opacity="0"/>
</linearGradient>
<linearGradient id="paint17_linear_117_2" x1="82" y1="290" x2="22" y2="290" gradientUnits="userSpaceOnUse">
<stop stop-color="#050922"/>
<stop offset="1" stop-color="#050922" stop-opacity="0"/>
</linearGradient>
<linearGradient id="paint18_linear_117_2" x1="190" y1="391" x2="190" y2="413" gradientUnits="userSpaceOnUse">
<stop stop-color="#050922"/>
<stop offset="1" stop-color="#050922" stop-opacity="0"/>
</linearGradient>
<linearGradient id="paint19_linear_117_2" x1="190" y1="49" x2="190" y2="27" gradientUnits="userSpaceOnUse">
<stop stop-color="#050922"/>
<stop offset="1" stop-color="#050922" stop-opacity="0"/>
</linearGradient>
<linearGradient id="paint20_linear_117_2" x1="260" y1="391" x2="260" y2="413" gradientUnits="userSpaceOnUse">
<stop stop-color="#050922"/>
<stop offset="1" stop-color="#050922" stop-opacity="0"/>
</linearGradient>
<linearGradient id="paint21_linear_117_2" x1="260" y1="49" x2="260" y2="27" gradientUnits="userSpaceOnUse">
<stop stop-color="#050922"/>
<stop offset="1" stop-color="#050922" stop-opacity="0"/>
</linearGradient>
<linearGradient id="paint22_linear_117_2" x1="322.5" y1="372.5" x2="330" y2="413" gradientUnits="userSpaceOnUse">
<stop stop-color="#050922"/>
<stop offset="1" stop-color="#050922" stop-opacity="0"/>
</linearGradient>
<linearGradient id="paint23_linear_117_2" x1="330" y1="77" x2="342.5" y2="35.5" gradientUnits="userSpaceOnUse">
<stop stop-color="#050922"/>
<stop offset="1" stop-color="#050922" stop-opacity="0"/>
</linearGradient>
<linearGradient id="paint24_linear_117_2" x1="330" y1="363" x2="350.5" y2="405" gradientUnits="userSpaceOnUse">
<stop stop-color="#050922"/>
<stop offset="1" stop-color="#050922" stop-opacity="0"/>
</linearGradient>
<linearGradient id="paint25_linear_117_2" x1="322.5" y1="73" x2="330" y2="27" gradientUnits="userSpaceOnUse">
<stop stop-color="#050922"/>
<stop offset="1" stop-color="#050922" stop-opacity="0"/>
</linearGradient>
<linearGradient id="paint26_linear_117_2" x1="368" y1="94" x2="432" y2="94" gradientUnits="userSpaceOnUse">
<stop stop-color="#050922"/>
<stop offset="1" stop-color="#050922" stop-opacity="0"/>
</linearGradient>
<linearGradient id="paint27_linear_117_2" x1="368" y1="178" x2="432" y2="178" gradientUnits="userSpaceOnUse">
<stop stop-color="#050922"/>
<stop offset="1" stop-color="#050922" stop-opacity="0"/>
</linearGradient>
<linearGradient id="paint28_linear_117_2" x1="368" y1="262" x2="432" y2="262" gradientUnits="userSpaceOnUse">
<stop stop-color="#050922"/>
<stop offset="1" stop-color="#050922" stop-opacity="0"/>
</linearGradient>
<linearGradient id="paint29_linear_117_2" x1="368" y1="346" x2="432" y2="346" gradientUnits="userSpaceOnUse">
<stop stop-color="#050922"/>
<stop offset="1" stop-color="#050922" stop-opacity="0"/>
</linearGradient>
<linearGradient id="paint30_linear_117_2" x1="347.5" y1="353.5" x2="388.5" y2="413" gradientUnits="userSpaceOnUse">
<stop stop-color="#050922"/>
<stop offset="1" stop-color="#050922" stop-opacity="0"/>
</linearGradient>
<linearGradient id="paint31_linear_117_2" x1="336" y1="108" x2="432" y2="66" gradientUnits="userSpaceOnUse">
<stop stop-color="#050922"/>
<stop offset="1" stop-color="#050922" stop-opacity="0"/>
</linearGradient>
<linearGradient id="paint32_linear_117_2" x1="368" y1="150" x2="432" y2="150" gradientUnits="userSpaceOnUse">
<stop stop-color="#050922"/>
<stop offset="1" stop-color="#050922" stop-opacity="0"/>
</linearGradient>
<linearGradient id="paint33_linear_117_2" x1="368" y1="234" x2="432" y2="234" gradientUnits="userSpaceOnUse">
<stop stop-color="#050922"/>
<stop offset="1" stop-color="#050922" stop-opacity="0"/>
</linearGradient>
<linearGradient id="paint34_linear_117_2" x1="368" y1="318" x2="432" y2="318" gradientUnits="userSpaceOnUse">
<stop stop-color="#050922"/>
<stop offset="1" stop-color="#050922" stop-opacity="0"/>
</linearGradient>
<linearGradient id="paint35_linear_117_2" x1="339.5" y1="333" x2="432" y2="374" gradientUnits="userSpaceOnUse">
<stop stop-color="#050922"/>
<stop offset="1" stop-color="#050922" stop-opacity="0"/>
</linearGradient>
<linearGradient id="paint36_linear_117_2" x1="361" y1="93.5" x2="400" y2="30.5" gradientUnits="userSpaceOnUse">
<stop stop-color="#050922"/>
<stop offset="1" stop-color="#050922" stop-opacity="0"/>
</linearGradient>
<linearGradient id="paint37_linear_117_2" x1="368" y1="122" x2="432" y2="122" gradientUnits="userSpaceOnUse">
<stop stop-color="#050922"/>
<stop offset="1" stop-color="#050922" stop-opacity="0"/>
</linearGradient>
<linearGradient id="paint38_linear_117_2" x1="368" y1="206" x2="432" y2="206" gradientUnits="userSpaceOnUse">
<stop stop-color="#050922"/>
<stop offset="1" stop-color="#050922" stop-opacity="0"/>
</linearGradient>
<linearGradient id="paint39_linear_117_2" x1="368" y1="290" x2="432" y2="290" gradientUnits="userSpaceOnUse">
<stop stop-color="#050922"/>
<stop offset="1" stop-color="#050922" stop-opacity="0"/>
</linearGradient>
<linearGradient id="paint40_linear_117_2" x1="232.5" y1="405.5" x2="232.25" y2="420.975" gradientUnits="userSpaceOnUse">
<stop stop-color="#400600"/>
<stop offset="1" stop-color="#F34C3C"/>
</linearGradient>
<linearGradient id="paint41_linear_117_2" x1="268.5" y1="410.5" x2="245" y2="411.5" gradientUnits="userSpaceOnUse">
<stop stop-color="#C37142"/>
<stop offset="1" stop-color="#79331A"/>
</linearGradient>
<linearGradient id="paint42_linear_117_2" x1="325" y1="324.5" x2="293.962" y2="405.496" gradientUnits="userSpaceOnUse">
<stop stop-color="#ED7E25"/>
<stop offset="0.662574" stop-color="#FECD0E"/>
<stop offset="1" stop-color="#FFFFDD"/>
</linearGradient>
<linearGradient id="paint43_linear_117_2" x1="275.5" y1="124.5" x2="307.128" y2="344.019" gradientUnits="userSpaceOnUse">
<stop stop-color="#ED7E25"/>
<stop offset="0.696796" stop-color="#FECD0E"/>
<stop offset="1" stop-color="#FFFFDD"/>
</linearGradient>
<linearGradient id="paint44_linear_117_2" x1="171.5" y1="153.5" x2="233.403" y2="304.417" gradientUnits="userSpaceOnUse">
<stop stop-color="#ED7E25"/>
<stop offset="0.558278" stop-color="#FECD0E"/>
<stop offset="1" stop-color="#FFFFDD"/>
</linearGradient>
<linearGradient id="paint45_linear_117_2" x1="203" y1="222" x2="201.858" y2="379.647" gradientUnits="userSpaceOnUse">
<stop stop-color="#ED7E25"/>
<stop offset="0.558278" stop-color="#FECD0E"/>
<stop offset="1" stop-color="#FFFFDD"/>
</linearGradient>
<linearGradient id="paint46_linear_117_2" x1="143.246" y1="251.908" x2="190.108" y2="423.354" gradientUnits="userSpaceOnUse">
<stop stop-color="#ED7E25"/>
<stop offset="0.558278" stop-color="#FECD0E"/>
<stop offset="1" stop-color="#FFFFDD"/>
</linearGradient>
<linearGradient id="paint47_linear_117_2" x1="123.5" y1="321" x2="154.5" y2="424" gradientUnits="userSpaceOnUse">
<stop stop-color="#ED7E25"/>
<stop offset="0.558278" stop-color="#FECD0E"/>
<stop offset="1" stop-color="#FFFFDD"/>
</linearGradient>
<linearGradient id="paint48_linear_117_2" x1="286" y1="213.5" x2="298.418" y2="409.868" gradientUnits="userSpaceOnUse">
<stop stop-color="#ED7E25"/>
<stop offset="0.558278" stop-color="#FECD0E"/>
<stop offset="1" stop-color="#FFFFDD"/>
</linearGradient>
<linearGradient id="paint49_linear_117_2" x1="229.5" y1="371.5" x2="221.5" y2="406.5" gradientUnits="userSpaceOnUse">
<stop stop-color="#F9E549"/>
<stop offset="0.515625" stop-color="#A76833"/>
<stop offset="1" stop-color="#693937"/>
</linearGradient>
<linearGradient id="paint50_linear_117_2" x1="214.5" y1="412" x2="235.5" y2="412" gradientUnits="userSpaceOnUse">
<stop stop-color="#7F3D1D"/>
<stop offset="1" stop-color="#B9732B"/>
</linearGradient>
<linearGradient id="paint51_linear_117_2" x1="201.5" y1="414" x2="180.5" y2="416" gradientUnits="userSpaceOnUse">
<stop stop-color="#92410C"/>
<stop offset="1" stop-color="#AB684D"/>
</linearGradient>
<linearGradient id="paint52_linear_117_2" x1="218.5" y1="368.5" x2="225" y2="400" gradientUnits="userSpaceOnUse">
<stop stop-color="#FFE25E"/>
<stop offset="0.620986" stop-color="#9A7330"/>
<stop offset="0.979167" stop-color="#72333A"/>
</linearGradient>
</defs>
</svg>
