<svg width="235" height="317" viewBox="0 0 235 317" fill="none" xmlns="http://www.w3.org/2000/svg">
<path d="M212.5 305.5C126.1 324.7 46.1667 313.5 17 305.5V297.5H212.5V305.5Z" fill="#14152A"/>
<path d="M212.5 303.5C161.7 310.7 71.6667 306.5 33 303.5L123 276.5L212.5 303.5Z" fill="url(#paint0_linear_104_6)"/>
<path d="M157.5 310C146.7 309.2 133.333 296 128 289.5V283.5L153.5 293C163.1 298.2 160.167 306.5 157.5 310Z" fill="url(#paint1_linear_104_6)"/>
<path d="M224 264C222.4 280.4 212 285.833 207 286.5L147.5 277L185 224.5C193.4 224.1 203.167 231 207 234.5C213 218.1 228.167 212 235 211C233 211.4 227.5 219.167 225 223C221.8 229 223 252.833 224 264Z" fill="url(#paint2_linear_104_6)"/>
<path d="M172 191.5C163.2 200.7 160.333 216.667 160 223.5L124 217.5L97 191.5C75.4 170.7 88 139.833 97 127C92.2 119.8 91.3333 82.3333 91.5 64.5C101.5 90.5 117.333 82.6667 124 75.5C138.4 62.3 136.667 20 134 0.5C142.4 14.5 152.167 36.6667 156 46C160.4 70 152.833 97 148.5 107.5C142.5 121.5 139.667 136 139 141.5C144.2 135.5 161.167 128.667 169 126C187.8 119.6 193.833 96 194.5 85C196.9 95.8 195.5 129.167 194.5 144.5C192.1 166.1 178.5 184.833 172 191.5Z" fill="url(#paint3_linear_104_6)"/>
<path d="M43 131.5C50.2 143.1 53.3333 157.333 54 163L89.5 133.5C88.3 125.5 73 105.5 65.5 96.5C57.1 85.7 62 75 65.5 71C74.7 59 73.3333 45 71.5 39.5C73.5 49.9 63.3333 58.5 58 61.5C43.6 69.5 37 85.5 35.5 92.5C31.5 107.3 38.8333 124.667 43 131.5Z" fill="url(#paint4_linear_104_6)"/>
<path d="M65.5 144C49.5 156.4 40.5 176.833 38 185.5L52 198.5L109.5 215L121 200L100 175.5C86.8 162.7 92.1667 144.833 96.5 137.5C105.7 125.5 106.667 111.5 106 106C105.6 120 96.8333 126.167 92.5 127.5C83.7 129.9 70.8333 139.5 65.5 144Z" fill="url(#paint5_linear_104_6)"/>
<path d="M20.5 208.5C12.5 166.9 28.1666 141.5 37 134C26.2 156.8 37.1667 177.5 44 185C52 194.6 89.3333 204.667 107 208.5L89 276.5L47.5 260.5C31.1 250.1 22.6667 221.5 20.5 208.5Z" fill="url(#paint6_linear_104_6)"/>
<path d="M8.49997 248.5C6.09997 270.5 20.8333 282.667 28.5 286L78 279.5L38 246L23.5 223.5C13.5 208.3 4 204.833 0.5 205C12.5 217 10.8333 239 8.49997 248.5Z" fill="url(#paint7_linear_104_6)"/>
<path d="M106 202.5C81.6 222.9 83.8333 261.667 88 278.5L194 260.5C202.4 249.3 199.5 238.167 197 234C194.2 228 188.167 219.167 185.5 215.5C177.9 203.1 190 180.333 197 170.5C179.4 172.9 170.333 198.167 168 210.5C161.2 226.1 151.5 222.667 147.5 219C139.1 209.4 148.333 196.333 154 191C170.4 176.2 178.833 155.167 181 146.5C185.4 127.3 178.167 109.167 174 102.5C176 113.3 175.833 129 175.5 135.5C173.5 153.9 156 166.5 147.5 170.5C131.1 178.9 113 195.333 106 202.5Z" fill="url(#paint8_linear_104_6)"/>
<path d="M159.5 299.5L131.5 293.5L128.5 290L156.5 292.5L159.5 299.5Z" fill="#562008"/>
<path d="M214 285.5L33 251C22.2 258.6 27.1667 267.167 31 270.5L207.5 307L214 285.5Z" fill="url(#paint9_linear_104_6)"/>
<path d="M112.707 311C105.107 311 104.54 295.667 105.207 288L117.207 283.5L125.707 288C126.907 308 117.54 311.667 112.707 311Z" fill="url(#paint10_linear_104_6)"/>
<path d="M126 293.5H105V290L116 285.5L126 288V293.5Z" fill="#471806"/>
<path d="M135.5 292L188.5 280.5L165.5 276L113 287.5L135.5 292Z" fill="#3B0D0F"/>
<path d="M72.6 310C83.3634 309.215 96.6847 296.264 102 289.887V284L76.5864 293.321C67.019 298.423 69.9424 306.566 72.6 310Z" fill="url(#paint11_linear_104_6)"/>
<path d="M97 295.5L70 301C70 300.2 71 298.333 71.5 297.5L102.5 289L97 295.5Z" fill="#340D06"/>
<path d="M195.5 253L18 285.5L22.5 308L197.5 271.5C204.7 268.7 205.5 264 205 262C205 255.6 198.667 253.333 195.5 253Z" fill="url(#paint12_linear_104_6)"/>
<ellipse cx="212" cy="297" rx="11" ry="12" fill="#B99A57"/>
<ellipse cx="18.5" cy="297" rx="10.5" ry="12" fill="#B99A57"/>
<defs>
<linearGradient id="paint0_linear_104_6" x1="123" y1="292" x2="122.75" y2="307.475" gradientUnits="userSpaceOnUse">
<stop stop-color="#400600"/>
<stop offset="1" stop-color="#F34C3C"/>
</linearGradient>
<linearGradient id="paint1_linear_104_6" x1="159" y1="297" x2="135.5" y2="298" gradientUnits="userSpaceOnUse">
<stop stop-color="#C37142"/>
<stop offset="1" stop-color="#79331A"/>
</linearGradient>
<linearGradient id="paint2_linear_104_6" x1="215.5" y1="211" x2="184.462" y2="291.996" gradientUnits="userSpaceOnUse">
<stop stop-color="#ED7E25"/>
<stop offset="0.662574" stop-color="#FECD0E"/>
<stop offset="1" stop-color="#FFFFDD"/>
</linearGradient>
<linearGradient id="paint3_linear_104_6" x1="166" y1="11" x2="197.628" y2="230.519" gradientUnits="userSpaceOnUse">
<stop stop-color="#ED7E25"/>
<stop offset="0.696796" stop-color="#FECD0E"/>
<stop offset="1" stop-color="#FFFFDD"/>
</linearGradient>
<linearGradient id="paint4_linear_104_6" x1="62" y1="40" x2="123.903" y2="190.917" gradientUnits="userSpaceOnUse">
<stop stop-color="#ED7E25"/>
<stop offset="0.558278" stop-color="#FECD0E"/>
<stop offset="1" stop-color="#FFFFDD"/>
</linearGradient>
<linearGradient id="paint5_linear_104_6" x1="93.5" y1="108.5" x2="92.3579" y2="266.147" gradientUnits="userSpaceOnUse">
<stop stop-color="#ED7E25"/>
<stop offset="0.558278" stop-color="#FECD0E"/>
<stop offset="1" stop-color="#FFFFDD"/>
</linearGradient>
<linearGradient id="paint6_linear_104_6" x1="33.7455" y1="138.408" x2="80.6076" y2="309.854" gradientUnits="userSpaceOnUse">
<stop stop-color="#ED7E25"/>
<stop offset="0.558278" stop-color="#FECD0E"/>
<stop offset="1" stop-color="#FFFFDD"/>
</linearGradient>
<linearGradient id="paint7_linear_104_6" x1="14" y1="207.5" x2="45" y2="310.5" gradientUnits="userSpaceOnUse">
<stop stop-color="#ED7E25"/>
<stop offset="0.558278" stop-color="#FECD0E"/>
<stop offset="1" stop-color="#FFFFDD"/>
</linearGradient>
<linearGradient id="paint8_linear_104_6" x1="176.5" y1="100" x2="188.918" y2="296.368" gradientUnits="userSpaceOnUse">
<stop stop-color="#ED7E25"/>
<stop offset="0.558278" stop-color="#FECD0E"/>
<stop offset="1" stop-color="#FFFFDD"/>
</linearGradient>
<linearGradient id="paint9_linear_104_6" x1="120" y1="258" x2="112" y2="293" gradientUnits="userSpaceOnUse">
<stop stop-color="#F9E549"/>
<stop offset="0.515625" stop-color="#A76833"/>
<stop offset="1" stop-color="#693937"/>
</linearGradient>
<linearGradient id="paint10_linear_104_6" x1="105" y1="298.5" x2="126" y2="298.5" gradientUnits="userSpaceOnUse">
<stop stop-color="#7F3D1D"/>
<stop offset="1" stop-color="#B9732B"/>
</linearGradient>
<linearGradient id="paint11_linear_104_6" x1="92" y1="300.5" x2="71" y2="302.5" gradientUnits="userSpaceOnUse">
<stop stop-color="#92410C"/>
<stop offset="1" stop-color="#AB684D"/>
</linearGradient>
<linearGradient id="paint12_linear_104_6" x1="109" y1="255" x2="115.5" y2="286.5" gradientUnits="userSpaceOnUse">
<stop stop-color="#FFE25E"/>
<stop offset="0.620986" stop-color="#9A7330"/>
<stop offset="0.979167" stop-color="#72333A"/>
</linearGradient>
</defs>
</svg>
