<svg width="21" height="20" viewBox="0 0 21 20" fill="none" xmlns="http://www.w3.org/2000/svg">
<path d="M10.8142 19.84C16.2815 19.84 20.7137 15.4078 20.7137 9.94051C20.7137 4.47317 16.2815 0.0410156 10.8142 0.0410156C5.34683 0.0410156 0.914673 4.47317 0.914673 9.94051C0.914673 15.4078 5.34683 19.84 10.8142 19.84Z" fill="white"/>
<path d="M13.8868 6.19556C13.5107 6.19556 13.2056 6.50066 13.2056 6.87671C13.2056 7.25277 13.5107 7.55787 13.8868 7.55787C14.2628 7.55787 14.5679 7.25277 14.5679 6.87671C14.5679 6.50066 14.2628 6.19556 13.8868 6.19556Z" fill="#020413"/>
<path d="M10.8613 7.06812C9.28474 7.06812 8.0033 8.35096 8.0033 9.92614C8.0033 11.5013 9.28616 12.7842 10.8613 12.7842C12.4365 12.7842 13.7193 11.5013 13.7193 9.92614C13.7193 8.35096 12.4365 7.06812 10.8613 7.06812ZM10.8613 11.7582C9.85096 11.7582 9.03071 10.9365 9.03071 9.92756C9.03071 8.91859 9.85237 8.09695 10.8613 8.09695C11.8703 8.09695 12.6919 8.91859 12.6919 9.92756C12.6919 10.9365 11.8703 11.7582 10.8613 11.7582Z" fill="#020413"/>
<path d="M13.1302 15.7304H8.4955C6.57265 15.7304 5.00885 14.1666 5.00885 12.2437V7.60899C5.00885 5.68614 6.57265 4.12231 8.4955 4.12231H13.1302C15.0531 4.12231 16.6169 5.68614 16.6169 7.60899V12.2437C16.6169 14.1666 15.0531 15.7304 13.1302 15.7304ZM8.4955 5.215C7.17576 5.215 6.10153 6.28925 6.10153 7.60899V12.2437C6.10153 13.5634 7.17576 14.6377 8.4955 14.6377H13.1302C14.45 14.6377 15.5242 13.5634 15.5242 12.2437V7.60899C15.5242 6.28783 14.45 5.215 13.1302 5.215H8.4955Z" fill="#020413"/>
</svg>
