<svg width="521" height="275" viewBox="0 0 521 275" fill="none" xmlns="http://www.w3.org/2000/svg">
<path d="M120 184.511C106.843 184.511 68.6294 191.901 51.1675 195.595C74.0711 177.458 82.2335 135.641 83.4518 117C54.2132 125.061 23.3503 167.382 11.5736 187.534C14.4975 165.769 5.07614 139.84 0 129.595V249L39.5939 236.405C78.5787 225.925 109.442 197.443 120 184.511Z" fill="#020413"/>
<path d="M11.4348 93C3.04948 105.591 0.317894 118.913 0.000267029 124V109.215C-0.062912 98.1507 11.0908 81.7128 16.6756 74.8769C7.90915 54.2738 17.1521 31.3179 22.8693 22.4154C27.4431 27.3754 27.9513 50.8718 27.6337 62L37.1625 49.1231C32.5887 30.7603 40.3387 8.72322 44.7855 0C54.3142 10.6831 50.3439 34.9743 47.1677 45.7846L59.0786 35.7692C64.0336 17.9416 82.4241 12.1257 91 11.4462C82.2335 35.1015 67.0193 38.7897 60.5079 37.6769L48.1205 47.2154C60.3174 39.2031 78.6126 40.6974 86.2356 42.4461C73.2765 59.2338 49.391 59.2974 39.0682 57.2308C31.0641 62.5723 22.3929 75.3539 19.0578 81.0769C29.73 71.5385 51.4556 70.7436 60.9844 71.5385C54.5048 86.8 25.2515 92.2051 11.4348 93Z" fill="#020413"/>
<path d="M94.5476 241.831C92.7753 244.912 91.6023 247.509 91.0003 249.203L94.5476 241.831C97.7997 236.177 103.069 228.891 110.532 222.552C124.033 225.594 153.643 228.456 164.076 215.57C155.135 212.181 134.031 206.96 121.144 213.19C125.927 208.607 137.783 198.709 146.949 195.779C156.303 200.609 179.282 207.127 196.364 194.559C189.518 190.778 172.342 184.302 158.41 188.644L172.946 182.887C178.899 185.75 194.54 186.396 209.484 166.071C201.053 164.361 181.771 164.886 172.097 180.659L157.888 187.006C163.92 177.489 174.428 155.231 168.21 142.337C161.533 149.498 148.012 168.547 147.351 187.46L134.643 197.213C138.014 186.603 143.998 163.876 140.967 157.848C133.019 164.831 117.81 184.353 120.562 206.574C113.31 211.607 102.987 219.846 100 230.5L94.5476 241.831Z" fill="#020413"/>
<path d="M521 196.257C512.015 214.36 489.348 221.629 479.138 223H181C194.069 202.017 226.946 198.486 241.751 199.343C258.087 170.543 288.377 183.229 301.48 193.171C322.309 151.617 364.273 170.371 382.652 184.943C412.874 180.006 433.362 195.914 439.829 204.486C432.069 177.743 439.659 157.686 444.423 151C455.042 164.989 452.251 192.486 449.529 204.486C456.471 188.029 486.115 165.4 500.069 156.143C500.477 168.897 492.411 192.314 488.327 202.429C501.805 194.611 515.725 195.057 521 196.257Z" fill="#020413"/>
</svg>
