<svg width="706" height="540" viewBox="0 0 706 540" fill="none" xmlns="http://www.w3.org/2000/svg">
<path d="M0 0H182L185 11.5L189.5 0H207.5C202.167 7 193.4 22.5 201 28.5C201.667 24.1667 204.5 15.9 210.5 17.5C212.333 11.6667 218.4 0 228 0H245.5L237 9.5C242.333 7.5 252.7 5.5 251.5 13.5C250 17.1667 245.5 25.6 239.5 30C240.667 32.8333 244.2 38.4 249 38C252.167 37.5 258.1 34.6 256.5 27C259.5 30.6667 265.8 35.8 267 27L273.5 0H282L275.5 22.5C275.5 24.1667 276.4 26.5 280 22.5C281.5 21.5 285.2 19.6 288 20C286.167 22.3333 282.6 28.1 283 32.5C282.833 33.6667 281.6 36.4 278 38C276.333 40 274 44.8 278 48C279.333 48.5 281.8 51.2 281 58C280.833 60.1667 282 64.7 288 65.5C289.667 65.1667 292.8 66 292 72C291.167 83.3333 290 107.4 292 113C293.167 112.5 295.7 108.8 296.5 98C297.167 93.5 298.6 87.2 299 98C298 111.833 297.5 136.5 303.5 124.5C305.333 120.333 309.2 108.5 310 94.5V83.5C310.5 86 311.7 91.9 312.5 95.5C314.333 87.3333 318.1 69.9 318.5 65.5C318.5 72.8333 318.1 89.6 316.5 98C318.333 98.3333 320.9 101.6 316.5 112C317.667 112.167 320.4 111.7 322 108.5C320.5 113 317 122.9 315 126.5C314.167 133.333 313.6 147 318 147C319.833 146 324 140.8 326 128C327.833 122 332.2 109.4 335 107C333 116.5 329.2 136.8 330 142C330.833 142.333 333 141.9 335 137.5C336.5 136.667 339.5 136 339.5 140C339.333 141.833 337.9 148.4 333.5 160C332.333 162.5 330.7 168.8 333.5 174C337.167 176.667 345.5 179.8 349.5 171C351.5 165.333 355.4 152.6 355 147C355.5 154 356.5 169.6 356.5 176C357.667 174.333 360 169.9 360 165.5C361.167 171.333 362.8 184.7 360 191.5L353.5 215.5C356 210.667 362.6 202.7 369 209.5C369.333 212.833 369 221.4 365 229C364.833 232.833 366.1 238.8 372.5 232C375.833 226.333 382.8 211.1 384 195.5C384.5 192.333 385.9 188.6 387.5 199C387.833 205 386.9 220.5 380.5 234.5C384.667 229.833 392.8 222.8 392 232C390.833 238.667 390.2 252.9 397 256.5C400 255.5 406.2 248.6 407 229C407.167 225 408.5 219.4 412.5 229C414.833 231.167 419.5 231.5 419.5 215.5C420.167 205.833 422.3 189 425.5 199C425.333 211 425.9 236 429.5 240C431.667 240.167 435.7 242.8 434.5 252C436.333 258.333 440.6 266.2 443 247C444.167 236.167 447 216.8 449 226C450.667 215 454.3 196.3 455.5 209.5C457 226 452 242.5 452 256.5C450 272.667 446.6 306.4 449 312C454.413 306.123 464.764 292.811 465.907 283.572C465.943 282.833 465.974 282.139 466 281.5C466.029 282.163 465.996 282.855 465.907 283.572C465.466 292.478 464.216 307.937 462 312C465 310.5 471.6 306.1 474 300.5C470.833 308 464 323.6 462 326C469.5 326 485.3 322.5 488.5 308.5C488.5 303.167 487.4 291.7 483 288.5C486.5 290 494.5 294 498.5 298L503 260.5V308.5C505.5 305.833 511.6 300.5 516 300.5C510.167 305.667 498.5 318 498.5 326L434.5 343H0V0Z" fill="url(#paint0_linear_102_3)"/>
<path d="M21 21.5C24.2 29.5 8.66667 28.5 0.5 27V532H434.5C433.7 520.4 426.833 319.667 423.5 318L430.5 297.5C432.1 288.3 423.833 296 419.5 301V266C418.7 259.6 417.167 263.333 416.5 266L413 297.5C412.6 307.5 408.167 309.333 406 309C406.8 298.6 404.333 293.333 403 292C409.8 270.8 405.833 268.833 403 270.5C405 258.5 402.167 257.5 400.5 258.5L398.5 227C397.7 223 396.833 225.333 396.5 227L394.5 246.5C389.7 238.5 392.5 258.5 394.5 269.5C394.9 280.7 390.667 289.167 388.5 292C381.7 294.8 383.667 286.5 385.5 282C388.3 275.6 383.333 277.667 380.5 279.5C373.7 279.5 373.667 260.5 374.5 251C373.7 239.8 361.5 225.333 355.5 219.5C347.9 211.9 353.667 195.333 357.5 188C355.9 180.4 350.167 189.5 347.5 195L345.5 160.5C344.3 154.1 343 157.833 342.5 160.5L338 199.5C325.6 194.7 329.5 205.833 333 212C327.8 218.8 318.5 209.167 314.5 203.5C321.3 191.5 320.333 184.5 319 182.5C316.2 179.3 309.167 182.833 306 185C316 160.6 307.167 166.167 301.5 172L297.5 133.5C297.1 128.7 295.667 131.5 295 133.5V165.5C277 141.1 284.833 165.333 291 180.5C281.4 181.3 282 192.167 283.5 197.5C274.3 195.9 274 202.167 275 205.5C271 208.3 269 202.667 268.5 199.5C273.3 188.3 274.833 181.5 275 179.5C273.8 173.9 268.167 182.833 265.5 188L264 150.5C262.4 144.5 261.333 148 261 150.5L258.5 189.5C256.9 197.9 251.833 191 249.5 186.5C244.7 175.3 246.167 152.167 247.5 142C249.5 135.2 246.667 134.833 245 135.5C242.2 131.5 243.833 124.167 245 121C246.2 111.8 242.167 116.5 240 120L238 87C237.2 83.8 236 85.6667 235.5 87V111.5C231.1 107.5 233.667 121.833 235.5 129.5C236.7 138.3 228.333 140.5 224 140.5C218 139.3 217.167 134.667 217.5 132.5C219.5 122.5 213.333 123 210 124.5C208.8 118.9 208.5 105.5 208.5 99.5C206.9 93.9 205.5 97.1667 205 99.5V121C201 113 196.667 113 195 114C193.8 120 201.167 132.167 205 137.5C199.4 135.1 193.333 145.167 191 150.5C185.8 161.3 182.167 159 181 156.5C180.2 146.9 175.667 141.833 173.5 140.5C168.7 137.7 171.5 128 173.5 123.5C175.1 117.1 172.833 117.5 171.5 118.5C166.7 128.1 167.833 98.1667 169 82C168.6 78 167.167 80.3333 166.5 82L162 118.5C160.4 128.1 156.333 128.5 154.5 127.5C145.3 124.7 150.667 112.333 154.5 106.5C157.7 95.7 146.5 98.3333 140.5 101C150.9 86.2 143.5 85.5 138.5 87C129.7 93 126.5 84.5 126 79.5C124 74.7 119.833 72.5 118 72C123.6 78.4 117 79.6667 113 79.5C114.6 73.1 112.333 68.5 111 67C104.2 65 104.833 61.1667 106 59.5C110 49.5 105 40 102 36.5C98.8 31.7 99 14.5 99.5 6.5C94.7 19.7 95.8333 30.3333 97 34C99.4 52 95.3333 55.1667 93 54.5C85 50.5 85.6667 38.8333 87 33.5C89.8 24.7 88.1667 7.83333 87 0.5H76C77.2 12.5 73.5 26.8333 71.5 32.5C64.3 42.1 65.5 31.8333 67 25.5C67.8 20.3 65 22 63.5 23.5C56.3 25.1 56.8333 8.83333 58 0.5H11C12.2 9.7 18.1667 18.3333 21 21.5Z" fill="url(#paint1_linear_102_3)"/>
<path d="M603 419.5C607 427.9 606 436 605 439V488H675.5C666.7 480.8 670.833 458 674 447.5C680.8 428.3 670.167 440.167 664 448.5V414C663.2 408.4 662 411.667 661.5 414L658 448.5C656 470.1 644.833 472.833 639.5 471.5C630.7 464.3 634.167 453.167 637 448.5C643 430.9 631.5 434.833 625 439C627.8 433.4 629.167 427.333 629.5 425C630.7 418.6 623.333 423.333 619.5 426.5L615.5 383C614.7 375 613.167 379.667 612.5 383L611.5 419.5L605 412.5C597.4 406.9 600.5 414.833 603 419.5Z" fill="#392A3D"/>
<path d="M624.5 451C616.1 430.6 596.667 429.833 588 432V540H705.5V494.5C686.7 476.9 670 473.5 664 474C638.8 479.2 627.167 460.833 624.5 451Z" fill="#020413"/>
<defs>
<linearGradient id="paint0_linear_102_3" x1="258" y1="0" x2="217" y2="286.5" gradientUnits="userSpaceOnUse">
<stop stop-color="#000B2B"/>
<stop offset="1" stop-color="#3E2D3F"/>
</linearGradient>
<linearGradient id="paint1_linear_102_3" x1="217.5" y1="0.5" x2="217.5" y2="532" gradientUnits="userSpaceOnUse">
<stop stop-color="#000D28"/>
<stop offset="1" stop-color="#0F152D"/>
</linearGradient>
</defs>
</svg>
