<svg width="709" height="596" viewBox="0 0 709 596" fill="none" xmlns="http://www.w3.org/2000/svg">
<path d="M184.945 55.5L187.945 67L192.445 55.5C192.445 53.1667 194.245 47.9 201.445 45.5C208.645 43.1 210.445 51.1667 210.445 55.5C205.111 62.5 196.345 78 203.945 84C204.611 79.6667 207.445 71.4 213.445 73C215.278 67.1667 221.345 55.5 230.945 55.5C233.278 55.3333 238.845 54.6 242.445 53L254.445 45.5L248.445 55.5L239.945 65C245.278 63 255.645 61 254.445 69C252.945 72.6667 248.445 81.1 242.445 85.5C243.611 88.3333 247.145 93.9 251.945 93.5C255.111 93 261.045 90.1 259.445 82.5C262.445 86.1667 268.745 91.3 269.945 82.5L276.445 55.5C276.611 54.3333 277.745 51.7 280.945 50.5C282.278 50.5 284.945 51.5 284.945 55.5L278.445 78C278.445 79.6667 279.345 82 282.945 78C284.445 77 288.145 75.1 290.945 75.5C289.111 77.8333 285.545 83.6 285.945 88C285.778 89.1667 284.545 91.9 280.945 93.5C279.278 95.5 276.945 100.3 280.945 103.5C282.278 104 284.745 106.7 283.945 113.5C283.778 115.667 284.945 120.2 290.945 121C292.611 120.667 295.745 121.5 294.945 127.5C294.111 138.833 292.945 162.9 294.945 168.5C296.111 168 298.645 164.3 299.445 153.5C300.111 149 301.545 142.7 301.945 153.5C300.945 167.333 300.445 192 306.445 180C308.278 175.833 312.145 164 312.945 150V139C313.445 141.5 314.645 147.4 315.445 151C317.278 142.833 321.045 125.4 321.445 121C321.445 128.333 321.045 145.1 319.445 153.5C321.278 153.833 323.845 157.1 319.445 167.5C320.611 167.667 323.345 167.2 324.945 164C323.445 168.5 319.945 178.4 317.945 182C317.111 188.833 316.545 202.5 320.945 202.5C322.778 201.5 326.945 196.3 328.945 183.5C330.778 177.5 335.145 164.9 337.945 162.5C335.945 172 332.145 192.3 332.945 197.5C333.778 197.833 335.945 197.4 337.945 193C339.445 192.167 342.445 191.5 342.445 195.5C342.278 197.333 340.845 203.9 336.445 215.5C335.278 218 333.645 224.3 336.445 229.5C340.111 232.167 348.445 235.3 352.445 226.5C354.445 220.833 358.345 208.1 357.945 202.5C358.445 209.5 359.445 225.1 359.445 231.5C360.611 229.833 362.945 225.4 362.945 221C364.111 226.833 365.745 240.2 362.945 247L356.445 271C358.945 266.167 365.545 258.2 371.945 265C372.278 268.333 371.945 276.9 367.945 284.5C367.778 288.333 369.045 294.3 375.445 287.5C378.778 281.833 385.745 266.6 386.945 251C387.445 247.833 388.845 244.1 390.445 254.5C390.778 260.5 389.845 276 383.445 290C387.611 285.333 395.745 278.3 394.945 287.5C393.778 294.167 393.145 308.4 399.945 312C402.945 311 409.145 304.1 409.945 284.5C410.111 280.5 411.445 274.9 415.445 284.5C417.778 286.667 422.445 287 422.445 271C423.111 261.333 425.245 244.5 428.445 254.5C428.278 266.5 428.845 291.5 432.445 295.5C434.611 295.667 438.645 298.3 437.445 307.5C439.278 313.833 443.545 321.7 445.945 302.5C447.111 291.667 449.945 272.3 451.945 281.5C453.611 270.5 457.245 251.8 458.445 265C459.945 281.5 454.945 298 454.945 312C452.945 328.167 449.545 361.9 451.945 367.5C457.358 361.623 467.708 348.311 468.852 339.072C468.888 338.333 468.919 337.639 468.945 337C468.974 337.663 468.94 338.355 468.852 339.072C468.411 347.978 467.161 363.437 464.945 367.5C467.945 366 474.545 361.6 476.945 356C473.778 363.5 466.945 379.1 464.945 381.5C472.445 381.5 488.245 378 491.445 364C491.445 358.667 490.345 347.2 485.945 344C489.445 345.5 497.445 349.5 501.445 353.5L505.945 316V364C508.445 361.333 514.545 356 518.945 356C513.111 361.167 501.445 373.5 501.445 381.5L437.445 398.5H2.94477V55.5L0.944771 52.5C-1.45523 45.3 1.2781 39.1667 2.94477 37C6.14477 33 13.2781 33 16.4448 33.5C21.6448 35.9 23.2781 42.1667 23.4448 45C23.8448 36.6 32.9448 39.5 37.4448 42C40.6448 34.8 46.1114 37.6667 48.4448 40C51.2448 42.4 56.9448 42.3333 59.4448 42C62.4448 39 72.9448 37 74.9448 37C82.1448 38.2 88.9448 42.8333 91.4448 45C97.8448 47.4 98.1114 44 97.4448 42C95.4448 37.6 96.6114 35.8333 97.4448 35.5C100.245 33.5 102.278 39 102.945 42C102.945 13.6 104.278 8.5 104.945 9.5C108.545 7.9 108.111 24.8333 107.445 33.5C111.045 31.9 112.278 37.1667 112.445 40C118.445 30.8 129.945 33.1667 134.945 35.5C139.745 28.7 144.611 32.6667 146.445 35.5C148.845 39.5 153.445 37.1667 155.445 35.5C154.245 24.3 157.278 27.5 158.945 30.5C158.545 7.3 160.778 0.5 161.945 0C163.545 5.2 162.611 18.5 161.945 24.5C161.145 35.7 164.611 39.5 166.445 40C166.845 35.6 170.945 35.1667 172.945 35.5C177.345 35.9 178.111 40 177.945 42C178.745 45.6 184.945 43.5 187.945 42C184.345 45.6 184.445 52.5 184.945 55.5Z" fill="url(#paint0_linear_101_6)"/>
<path d="M2.94476 82.5C11.1114 84 27.1448 85 23.9448 77C21.1114 73.8333 15.1448 65.2 13.9448 56C13.7781 54 14.7448 49.8 19.9448 49C22.1114 48.3333 25.6448 45.9 22.4448 41.5C24.1114 42.5 27.8448 43.3 29.4448 38.5C29.4448 37.1667 30.2448 34.8 33.4448 36C35.1114 33.8333 39.5448 30.8 43.9448 36C46.2781 34.8333 51.9448 33.7 55.9448 38.5C58.4448 38.1667 62.6448 38.8 59.4448 44C60.4448 46.1667 62.1448 51.6 60.9448 56C59.7781 64.3333 59.2448 80.6 66.4448 79C67.9448 77.5 70.7448 75.8 69.9448 81C68.4448 87.3333 67.2448 97.6 74.4448 88C76.4448 82.3333 80.1448 68 78.9448 56C78.6114 53.5 79.1448 48.4 83.9448 48C85.5882 47.6667 89.0889 48.8 89.9448 56C91.1114 63.3333 92.7448 80.2 89.9448 89C88.6114 94.3333 87.9448 106 95.9448 110C98.2781 110.667 102.345 107.5 99.9448 89.5C98.7781 85.8333 97.6448 75.2 102.445 62C101.945 70 101.745 87.2 104.945 92C107.945 95.5 112.945 105 108.945 115C107.778 116.667 107.145 120.5 113.945 122.5C115.278 124 117.545 128.6 115.945 135C119.945 135.167 126.545 133.9 120.945 127.5C122.778 128 126.945 130.2 128.945 135C129.445 140 132.645 148.5 141.445 142.5C146.445 141 153.845 141.7 143.445 156.5C149.445 153.833 160.645 151.2 157.445 162C153.611 167.833 148.245 180.2 157.445 183C159.278 184 163.345 183.6 164.945 174L169.445 137.5C170.111 135.833 171.545 133.5 171.945 137.5C170.778 153.667 169.645 183.6 174.445 174C175.778 173 178.045 172.6 176.445 179C174.445 183.5 171.645 193.2 176.445 196C178.611 197.333 183.145 202.4 183.945 212C185.111 214.5 188.745 216.8 193.945 206C196.278 200.667 202.345 190.6 207.945 193C204.111 187.667 196.745 175.5 197.945 169.5C199.611 168.5 203.945 168.5 207.945 176.5V155C208.445 152.667 209.845 149.4 211.445 155C211.445 161 211.745 174.4 212.945 180C216.278 178.5 222.445 178 220.445 188C220.111 190.167 220.945 194.8 226.945 196C231.278 196 239.645 193.8 238.445 185C236.611 177.333 234.045 163 238.445 167V142.5C238.945 141.167 240.145 139.3 240.945 142.5L242.945 175.5C245.111 172 249.145 167.3 247.945 176.5C246.778 179.667 245.145 187 247.945 191C249.611 190.333 252.445 190.7 250.445 197.5C249.111 207.667 247.645 230.8 252.445 242C254.778 246.5 259.845 253.4 261.445 245L263.945 206C264.278 203.5 265.345 200 266.945 206L268.445 243.5C271.111 238.333 276.745 229.4 277.945 235C277.778 237 276.245 243.8 271.445 255C271.945 258.167 273.945 263.8 277.945 261C276.945 257.667 277.245 251.4 286.445 253C284.945 247.667 284.345 236.8 293.945 236C287.778 220.833 279.945 196.6 297.945 221V189C298.611 187 300.045 184.2 300.445 189L304.445 227.5C310.111 221.667 318.945 216.1 308.945 240.5C312.111 238.333 319.145 234.8 321.945 238C323.278 240 324.245 247 317.445 259C321.445 264.667 330.745 274.3 335.945 267.5C332.445 261.333 328.545 250.2 340.945 255L345.445 216C345.945 213.333 347.245 209.6 348.445 216L350.445 250.5C353.111 245 358.845 235.9 360.445 243.5C356.611 250.833 350.845 267.4 358.445 275C364.445 280.833 376.645 295.3 377.445 306.5C376.611 316 376.645 335 383.445 335C386.278 333.167 391.245 331.1 388.445 337.5C386.611 342 384.645 350.3 391.445 347.5C393.611 344.667 397.845 336.2 397.445 325C395.445 314 392.645 294 397.445 302L399.445 282.5C399.778 280.833 400.645 278.5 401.445 282.5L403.445 314C405.111 313 407.945 314 405.945 326C408.778 324.333 412.745 326.3 405.945 347.5C407.278 348.833 409.745 354.1 408.945 364.5C411.111 364.833 415.545 363 415.945 353L419.445 321.5C420.111 318.833 421.645 315.1 422.445 321.5V356.5C426.778 351.5 435.045 343.8 433.445 353L426.445 373.5C429.778 375.167 436.645 575.9 437.445 587.5H2.94476V82.5Z" fill="url(#paint1_linear_101_6)"/>
<path d="M605.945 475C609.945 483.4 608.945 491.5 607.945 494.5V543.5H678.445C669.645 536.3 673.778 513.5 676.945 503C683.745 483.8 673.111 495.667 666.945 504V469.5C666.145 463.9 664.945 467.167 664.445 469.5L660.945 504C658.945 525.6 647.778 528.333 642.445 527C633.645 519.8 637.111 508.667 639.945 504C645.945 486.4 634.445 490.333 627.945 494.5C630.745 488.9 632.111 482.833 632.445 480.5C633.645 474.1 626.278 478.833 622.445 482L618.445 438.5C617.645 430.5 616.111 435.167 615.445 438.5L614.445 475L607.945 468C600.345 462.4 603.445 470.333 605.945 475Z" fill="#392A3D"/>
<path d="M627.445 506.5C619.045 486.1 599.611 485.333 590.945 487.5V595.5H708.445V550C689.645 532.4 672.945 529 666.945 529.5C641.745 534.7 630.111 516.333 627.445 506.5Z" fill="#020413"/>
<defs>
<linearGradient id="paint0_linear_101_6" x1="260.945" y1="55.5" x2="219.945" y2="342" gradientUnits="userSpaceOnUse">
<stop stop-color="#000B2B"/>
<stop offset="1" stop-color="#3E2D3F"/>
</linearGradient>
<linearGradient id="paint1_linear_101_6" x1="220.445" y1="56" x2="220.445" y2="587.5" gradientUnits="userSpaceOnUse">
<stop stop-color="#000D28"/>
<stop offset="1" stop-color="#0F152D"/>
</linearGradient>
</defs>
</svg>
