<svg width="43" height="27" viewBox="0 0 43 27" fill="none" xmlns="http://www.w3.org/2000/svg">
<path d="M0.42 19V18.29H1.38V5.71H0.42V5H4.67V5.71H4.06V11.44H5.69V5.71H5.1V5H9.27V5.71H8.31V18.29H9.27V19H5.1V18.29H5.69V12.15H4.06V18.29H4.67V19H0.42ZM13.807 19V18.29H14.787V5.71H13.807V5H18.457V5.71H17.467V18.29H18.457V19H13.807ZM22.8469 19V18.29H23.7769V5.71H22.8469V5H27.4369V5.71H26.4369V11.32L29.4469 5.71H28.5569V5H31.1069V5.71H30.2769L28.0569 9.86L28.2969 9.14L30.7369 18.29H31.4369V19H27.2369V18.29H27.8669L26.1069 11.53L26.4369 11.69V18.29H27.0869V19H22.8469ZM35.627 19V18.29H36.587V5.71H35.627V5H42.067V8.49H41.357C41.357 7.95 41.297 7.47 41.177 7.05C41.057 6.63 40.8737 6.30333 40.627 6.07C40.387 5.83 40.077 5.71 39.697 5.71H39.307V11.64H40.867V10.69H41.577V13.27H40.867V12.35H39.307V18.29H39.697C40.077 18.29 40.387 18.17 40.627 17.93C40.867 17.6833 41.047 17.35 41.167 16.93C41.2937 16.5033 41.357 16.02 41.357 15.48H42.067V19H35.627Z" fill="white"/>
<path d="M1.407 25V21.626L1.533 21.759H0.014V21.325H3.297V21.759H1.778L1.904 21.626V25H1.407ZM3.93859 26.393C3.76593 26.393 3.60026 26.365 3.44159 26.309C3.28759 26.253 3.15459 26.169 3.04259 26.057L3.27359 25.686C3.36693 25.7747 3.46726 25.8423 3.57459 25.889C3.68659 25.9403 3.81026 25.966 3.94559 25.966C4.10893 25.966 4.24893 25.9193 4.36559 25.826C4.48693 25.7373 4.60126 25.5787 4.70859 25.35L4.94659 24.811L5.00259 24.734L6.51459 21.325H7.00459L5.16359 25.441C5.06093 25.679 4.94659 25.868 4.82059 26.008C4.69926 26.148 4.56626 26.246 4.42159 26.302C4.27693 26.3627 4.11593 26.393 3.93859 26.393ZM4.91859 25.105L3.22459 21.325H3.74259L5.24059 24.699L4.91859 25.105ZM9.53591 25.035C9.21858 25.035 8.93158 24.9627 8.67491 24.818C8.41825 24.6687 8.21291 24.4563 8.05891 24.181C7.90958 23.901 7.83491 23.5603 7.83491 23.159C7.83491 22.7577 7.90958 22.4193 8.05891 22.144C8.20825 21.864 8.41125 21.6517 8.66791 21.507C8.92458 21.3623 9.21391 21.29 9.53591 21.29C9.88591 21.29 10.1986 21.3693 10.4739 21.528C10.7539 21.682 10.9732 21.9013 11.1319 22.186C11.2906 22.466 11.3699 22.7903 11.3699 23.159C11.3699 23.5323 11.2906 23.859 11.1319 24.139C10.9732 24.419 10.7539 24.6383 10.4739 24.797C10.1986 24.9557 9.88591 25.035 9.53591 25.035ZM7.63891 26.358V21.325H8.11491V22.431L8.06591 23.166L8.13591 23.908V26.358H7.63891ZM9.50091 24.594C9.76225 24.594 9.99558 24.5357 10.2009 24.419C10.4062 24.2977 10.5696 24.1297 10.6909 23.915C10.8122 23.6957 10.8729 23.4437 10.8729 23.159C10.8729 22.8743 10.8122 22.6247 10.6909 22.41C10.5696 22.1953 10.4062 22.0273 10.2009 21.906C9.99558 21.7847 9.76225 21.724 9.50091 21.724C9.23958 21.724 9.00391 21.7847 8.79391 21.906C8.58858 22.0273 8.42525 22.1953 8.30391 22.41C8.18725 22.6247 8.12891 22.8743 8.12891 23.159C8.12891 23.4437 8.18725 23.6957 8.30391 23.915C8.42525 24.1297 8.58858 24.2977 8.79391 24.419C9.00391 24.5357 9.23958 24.594 9.50091 24.594ZM14.5592 25V24.188L14.5382 24.055V22.697C14.5382 22.3843 14.4496 22.144 14.2722 21.976C14.0996 21.808 13.8406 21.724 13.4952 21.724C13.2572 21.724 13.0309 21.7637 12.8162 21.843C12.6016 21.9223 12.4196 22.0273 12.2702 22.158L12.0462 21.787C12.2329 21.6283 12.4569 21.507 12.7182 21.423C12.9796 21.3343 13.2549 21.29 13.5442 21.29C14.0202 21.29 14.3866 21.409 14.6432 21.647C14.9046 21.8803 15.0352 22.2373 15.0352 22.718V25H14.5592ZM13.2922 25.035C13.0169 25.035 12.7766 24.9907 12.5712 24.902C12.3706 24.8087 12.2166 24.6827 12.1092 24.524C12.0019 24.3607 11.9482 24.174 11.9482 23.964C11.9482 23.7727 11.9926 23.6 12.0812 23.446C12.1746 23.2873 12.3239 23.1613 12.5292 23.068C12.7392 22.97 13.0192 22.921 13.3692 22.921H14.6362V23.292H13.3832C13.0286 23.292 12.7812 23.355 12.6412 23.481C12.5059 23.607 12.4382 23.7633 12.4382 23.95C12.4382 24.16 12.5199 24.328 12.6832 24.454C12.8466 24.58 13.0752 24.643 13.3692 24.643C13.6492 24.643 13.8896 24.58 14.0902 24.454C14.2956 24.3233 14.4449 24.1367 14.5382 23.894L14.6502 24.237C14.5569 24.4797 14.3936 24.6733 14.1602 24.818C13.9316 24.9627 13.6422 25.035 13.2922 25.035ZM16.2183 25V21.325H18.8223V21.759H16.5893L16.7153 21.633V25H16.2183ZM20.8047 25.035C20.422 25.035 20.086 24.9557 19.7967 24.797C19.5073 24.6337 19.281 24.412 19.1177 24.132C18.9543 23.8473 18.8727 23.523 18.8727 23.159C18.8727 22.795 18.9497 22.473 19.1037 22.193C19.2623 21.913 19.477 21.6937 19.7477 21.535C20.023 21.3717 20.331 21.29 20.6717 21.29C21.017 21.29 21.3227 21.3693 21.5887 21.528C21.8593 21.682 22.0717 21.9013 22.2257 22.186C22.3797 22.466 22.4567 22.7903 22.4567 23.159C22.4567 23.1823 22.4543 23.208 22.4497 23.236C22.4497 23.2593 22.4497 23.285 22.4497 23.313H19.2507V22.942H22.1837L21.9877 23.089C21.9877 22.823 21.9293 22.5873 21.8127 22.382C21.7007 22.172 21.5467 22.0087 21.3507 21.892C21.1547 21.7753 20.9283 21.717 20.6717 21.717C20.4197 21.717 20.1933 21.7753 19.9927 21.892C19.792 22.0087 19.6357 22.172 19.5237 22.382C19.4117 22.592 19.3557 22.8323 19.3557 23.103V23.18C19.3557 23.46 19.4163 23.7073 19.5377 23.922C19.6637 24.132 19.8363 24.2977 20.0557 24.419C20.2797 24.5357 20.534 24.594 20.8187 24.594C21.0427 24.594 21.2503 24.5543 21.4417 24.475C21.6377 24.3957 21.8057 24.2743 21.9457 24.111L22.2257 24.433C22.0623 24.629 21.857 24.7783 21.6097 24.881C21.367 24.9837 21.0987 25.035 20.8047 25.035ZM23.4168 25V21.325H23.9138V22.949H26.2308V21.325H26.7278V25H26.2308V23.376H23.9138V25H23.4168ZM29.5404 25.035C29.1764 25.035 28.8498 24.9557 28.5604 24.797C28.2758 24.6337 28.0518 24.412 27.8884 24.132C27.7251 23.8473 27.6434 23.523 27.6434 23.159C27.6434 22.7903 27.7251 22.466 27.8884 22.186C28.0518 21.906 28.2758 21.6867 28.5604 21.528C28.8498 21.3693 29.1764 21.29 29.5404 21.29C29.8531 21.29 30.1354 21.3507 30.3874 21.472C30.6394 21.5933 30.8378 21.7753 30.9824 22.018L30.6114 22.27C30.4854 22.0833 30.3291 21.9457 30.1424 21.857C29.9558 21.7683 29.7528 21.724 29.5334 21.724C29.2721 21.724 29.0364 21.7847 28.8264 21.906C28.6164 22.0227 28.4508 22.1883 28.3294 22.403C28.2081 22.6177 28.1474 22.8697 28.1474 23.159C28.1474 23.4483 28.2081 23.7003 28.3294 23.915C28.4508 24.1297 28.6164 24.2977 28.8264 24.419C29.0364 24.5357 29.2721 24.594 29.5334 24.594C29.7528 24.594 29.9558 24.5497 30.1424 24.461C30.3291 24.3723 30.4854 24.237 30.6114 24.055L30.9824 24.307C30.8378 24.545 30.6394 24.727 30.3874 24.853C30.1354 24.9743 29.8531 25.035 29.5404 25.035ZM32.4364 25V21.626L32.5624 21.759H31.0434V21.325H34.3264V21.759H32.8074L32.9334 21.626V25H32.4364ZM34.905 25V21.325H36.529C36.9443 21.325 37.271 21.4043 37.509 21.563C37.7517 21.7217 37.873 21.955 37.873 22.263C37.873 22.5617 37.7587 22.7927 37.53 22.956C37.3013 23.1147 37.0003 23.194 36.627 23.194L36.725 23.047C37.1637 23.047 37.4857 23.1287 37.691 23.292C37.8963 23.4553 37.999 23.691 37.999 23.999C37.999 24.3163 37.8823 24.5637 37.649 24.741C37.4203 24.9137 37.0633 25 36.578 25H34.905ZM35.388 24.608H36.557C36.8697 24.608 37.1053 24.559 37.264 24.461C37.4273 24.3583 37.509 24.195 37.509 23.971C37.509 23.747 37.4367 23.5837 37.292 23.481C37.1473 23.3783 36.9187 23.327 36.606 23.327H35.388V24.608ZM35.388 22.956H36.494C36.7787 22.956 36.9957 22.9023 37.145 22.795C37.299 22.6877 37.376 22.5313 37.376 22.326C37.376 22.1207 37.299 21.9667 37.145 21.864C36.9957 21.7613 36.7787 21.71 36.494 21.71H35.388V22.956ZM40.5358 25.035C40.1811 25.035 39.8615 24.9557 39.5768 24.797C39.2968 24.6337 39.0751 24.412 38.9118 24.132C38.7485 23.8473 38.6668 23.523 38.6668 23.159C38.6668 22.7903 38.7485 22.466 38.9118 22.186C39.0751 21.906 39.2968 21.6867 39.5768 21.528C39.8568 21.3693 40.1765 21.29 40.5358 21.29C40.8998 21.29 41.2218 21.3693 41.5018 21.528C41.7865 21.6867 42.0081 21.906 42.1668 22.186C42.3301 22.466 42.4118 22.7903 42.4118 23.159C42.4118 23.523 42.3301 23.8473 42.1668 24.132C42.0081 24.412 41.7865 24.6337 41.5018 24.797C41.2171 24.9557 40.8951 25.035 40.5358 25.035ZM40.5358 24.594C40.8018 24.594 41.0375 24.5357 41.2428 24.419C41.4481 24.2977 41.6091 24.1297 41.7258 23.915C41.8471 23.6957 41.9078 23.4437 41.9078 23.159C41.9078 22.8697 41.8471 22.6177 41.7258 22.403C41.6091 22.1883 41.4481 22.0227 41.2428 21.906C41.0375 21.7847 40.8041 21.724 40.5428 21.724C40.2815 21.724 40.0481 21.7847 39.8428 21.906C39.6375 22.0227 39.4741 22.1883 39.3528 22.403C39.2315 22.6177 39.1708 22.8697 39.1708 23.159C39.1708 23.4437 39.2315 23.6957 39.3528 23.915C39.4741 24.1297 39.6375 24.2977 39.8428 24.419C40.0481 24.5357 40.2791 24.594 40.5358 24.594Z" fill="white"/>
</svg>
