<svg width="448" height="260" viewBox="0 0 448 260" fill="none" xmlns="http://www.w3.org/2000/svg">
<path d="M349.5 196C360.3 196 391.667 203.333 406 207C387.2 189 380.5 147.5 379.5 129C403.5 137 428.833 179 438.5 199C436.1 177.4 443.833 151.667 448 141.5V260L415.5 247.5C383.5 237.1 358.167 208.833 349.5 196Z" fill="#020413"/>
<path d="M435.5 98C444.3 111.2 447.167 125.167 447.5 130.5V115C447.566 103.4 435.861 86.1667 430 79C439.2 57.4 429.5 33.3333 423.5 24C418.7 29.2 418.167 53.8333 418.5 65.5L408.5 52C413.3 32.7488 405.167 9.64532 400.5 0.5C390.5 11.7 394.667 37.1667 398 48.5L385.5 38C380.3 19.3098 361 13.2124 352 12.5C361.2 37.3 377.167 41.1667 384 40L397 50C384.2 41.6 365 43.1667 357 45C370.6 62.6 395.667 62.6667 406.5 60.5C414.9 66.1 424 79.5 427.5 85.5C416.3 75.5 393.5 74.6667 383.5 75.5C390.3 91.5 421 97.1667 435.5 98Z" fill="#020413"/>
<path d="M328.6 200.523C337.862 213.17 406 246 390 248L342 219.5C331.5 213.5 317.491 196.818 312.831 188.95C289.649 190.087 270.605 172.898 263.98 164.162C270.441 161.497 293.492 169.413 304.209 173.703L295.077 159.845C275.572 157.713 256.889 142.303 249.986 134.864C263.785 129.437 286.011 141.985 295.399 148.937L289.903 133.79C274.319 122.599 275.223 102.665 277.623 94.0963C297.518 111.072 295.677 127.162 292.27 133.085L297.132 148.524C293.687 133.816 301.672 116.59 306.095 109.816C317.809 128.404 309.345 151.615 303.649 160.896C305.991 170.578 315.336 183.57 319.716 188.856C314.242 175.082 321.223 153.707 325.398 144.741C337.939 156.493 332.758 186.826 328.6 200.523Z" fill="#020413"/>
<path d="M0 218C8.8 235.6 31 242.667 41 244H333C320.2 223.6 288 220.167 273.5 221C257.5 193 227.833 205.333 215 215C194.6 174.6 153.5 192.833 135.5 207C105.9 202.2 85.8333 217.667 79.5 226C87.1 200 79.6667 180.5 75 174C64.6 187.6 67.3333 214.333 70 226C63.2 210 34.1667 188 20.5 179C20.1 191.4 28 214.167 32 224C18.8 216.4 5.16667 216.833 0 218Z" fill="#020413"/>
</svg>
