<svg width="659" height="584" viewBox="0 0 659 584" fill="none" xmlns="http://www.w3.org/2000/svg">
<path d="M507.888 44.3252C509.888 52.7253 513.721 47.8252 515.388 44.3252C515.388 41.8252 516.888 36.8253 522.888 36.8253C526.888 36.1586 534.288 33.4253 531.888 27.8253C532.888 28.8253 535.788 30.2253 539.388 27.8253C541.054 26.8253 543.888 24.2253 541.888 21.8253C541.388 20.6586 541.488 19.0253 545.888 21.8253C545.554 13.4919 545.488 -2.47475 547.888 0.325248C548.221 2.65859 548.988 11.4253 549.388 27.8253C550.054 31.3252 552.888 35.4252 558.888 23.8252C560.721 22.8252 564.988 21.9252 567.388 26.3252C568.888 24.1586 573.088 20.2253 577.888 21.8253C581.054 23.9919 588.388 27.4252 592.388 23.8252C593.721 26.1586 597.488 29.9252 601.888 26.3252C604.888 24.8252 612.588 23.0253 619.388 27.8253C623.221 24.6586 631.888 20.9252 635.888 31.3252C637.388 30.1586 640.788 28.5252 642.388 31.3252C647.721 30.6586 657.388 32.3253 653.388 44.3252V389.825H222.888C228.888 388.225 231.054 379.159 231.388 374.825C232.188 369.225 224.054 354.159 219.888 347.325L231.388 358.325L227.388 317.825L239.388 350.325C250.988 377.925 269.888 363.159 277.888 352.325L270.388 307.825L277.888 300.325C285.888 295.125 291.888 301.159 293.888 304.825C306.288 322.825 310.721 293.992 311.388 277.325C314.188 273.325 310.221 250.325 307.888 239.325C309.888 232.125 314.721 247.992 316.888 256.825C321.288 270.825 326.388 256.992 328.388 248.325C328.788 237.525 333.888 235.825 336.388 236.325C341.988 235.925 340.388 206.159 338.888 191.325C340.088 183.325 344.388 206.659 346.388 219.325C349.188 229.725 353.221 233.325 354.888 233.825L369.888 256.825L373.888 214.325L367.888 204.325C361.488 203.525 356.554 191.659 354.888 185.825C356.088 181.025 360.054 184.825 361.888 187.325C363.888 190.125 367.388 190.159 368.888 189.825C366.888 186.825 356.388 147.825 360.888 152.325C364.488 155.925 371.054 174.825 373.888 183.825C373.888 181.025 375.221 175.325 375.888 172.825C375.455 185.225 378.04 193.659 379.388 196.325C382.588 187.525 380.721 175.992 379.388 171.325C376.988 166.125 374.721 156.492 373.888 152.325C374.688 156.325 377.888 158.992 379.388 159.825L375.388 140.825L379.388 145.825L376.388 110.325L381.388 136.825L384.388 128.325L385.888 152.325C391.088 170.325 399.054 174.159 402.388 173.825L394.388 159.825L405.388 158.825C402.988 150.825 402.388 127.825 402.388 117.325C407.188 130.525 413.054 131.159 415.388 129.825C420.588 124.625 408.888 114.659 402.388 110.325C407.188 113.525 412.054 109.992 413.888 107.825V92.8253C419.488 90.0253 417.888 85.3252 416.388 83.3252C412.788 80.5252 408.554 69.8252 406.888 64.8252C406.888 60.0252 416.221 66.8252 420.888 70.8252L413.888 44.3252C413.721 42.9919 413.988 40.3252 416.388 40.3252C417.479 40.3252 419.907 41.1252 420.888 44.3252L430.388 75.3252C439.876 67.7345 439.611 81.1509 438.135 89.9469C440.058 81.5941 448.959 76.7487 453.388 75.3252C443.388 66.1253 442.221 57.8252 442.888 54.8252C446.888 50.4252 457.221 54.9919 461.888 57.8252C460.288 52.2253 453.221 46.4919 449.888 44.3252L443.888 39.3252C446.388 40.8252 453.488 43.9252 461.888 44.3252C478.688 44.3252 482.221 56.3252 481.888 62.3252C489.488 60.3252 492.721 67.1586 493.388 70.8252C493.388 68.0252 497.721 65.6586 499.888 64.8252C493.488 62.8252 489.888 50.3252 488.888 44.3252C488.388 40.9919 489.288 33.8252 496.888 31.8252C500.554 31.4919 507.888 33.5252 507.888 44.3252Z" fill="url(#paint0_linear_101_5)"/>
<path d="M604.388 66.3252C615.988 71.1252 615.888 53.9919 614.388 44.8252C614.388 42.3252 616.188 37.9252 623.388 40.3252C625.054 40.4919 627.888 39.6252 625.888 34.8252C626.888 35.8252 629.588 37.5252 632.388 36.3252C633.054 35.3252 635.388 33.6252 639.388 34.8252C640.221 33.3252 642.588 30.9252 645.388 33.3252C647.888 33.4919 652.888 32.9252 652.888 29.3252C653.054 31.3252 653.988 35.5253 656.388 36.3252C658.388 38.4919 660.988 42.7252 653.388 44.3252V577.825C436.221 578.159 12.8875 573.325 7.38733 573.325C-8.1851 573.325 5.38738 482.159 7.38738 460.325C8.98738 454.325 10.3874 457.825 10.8874 460.325L16.8874 501.325C29.2874 493.325 27.7207 511.659 25.3874 521.825L46.8874 524.325C58.0874 513.525 51.5541 491.159 46.8874 481.325C45.2874 478.525 43.5541 473.492 42.8874 471.325C42.8874 464.925 49.2207 468.659 52.3874 471.325L55.8874 426.325C57.0874 421.525 58.7207 424.325 59.3874 426.325V466.325C60.9874 459.925 68.3874 455.325 71.8874 453.825C71.8874 462.225 66.5541 475.659 63.8874 481.325C71.8874 482.125 72.554 492.325 71.8874 497.325C83.8874 510.925 86.2207 503.992 85.8874 498.825C76.6874 476.425 89.7207 482.159 97.3874 487.825L94.8874 439.325L99.8874 432.325C96.2874 419.125 105.054 424.159 109.887 428.325C103.087 407.125 108.721 412.492 112.387 417.825V380.825C113.187 376.825 114.387 378.825 114.887 380.325L115.887 413.325C116.687 410.525 119.887 406.159 121.387 404.325C118.987 407.525 118.387 421.659 118.387 428.325C125.187 448.325 136.221 437.659 140.887 429.825C138.487 406.625 142.887 399.492 145.387 398.825C148.987 391.225 142.887 377.659 139.387 371.825C144.187 370.625 151.387 377.325 154.387 380.825C149.987 372.025 147.554 350.492 146.887 340.825C150.487 342.825 159.387 371.659 163.387 385.825C186.587 379.825 183.054 369.659 178.387 365.325C175.987 357.725 184.721 359.492 189.387 361.325C178.987 346.525 185.721 345.492 190.387 346.825C188.387 340.025 190.554 313.659 191.887 301.325C197.065 309.291 197.054 333.45 196.396 344.681C196.69 342.05 204.463 332.403 208.387 327.825C209.187 333.425 206.721 349.825 205.387 357.325C214.587 352.525 217.221 374.992 217.387 386.825C218.187 369.225 223.054 350.159 225.387 342.825C226.987 346.425 226.054 364.659 225.387 373.325C224.187 384.525 227.221 379.992 228.887 376.325C232.087 368.325 234.887 372.992 235.887 376.325C245.887 387.125 247.054 365.825 246.387 353.825C242.787 350.625 240.887 342.159 240.387 338.325C241.187 335.525 244.054 337.825 245.387 339.325V320.825C245.387 314.025 241.387 306.659 239.387 303.825C237.387 295.025 240.221 296.159 241.887 297.825C244.687 298.225 244.387 291.992 243.887 288.825L239.887 252.325C239.487 247.525 241.054 250.325 241.887 252.325L245.387 277.325C250.587 263.325 250.887 283.159 250.387 294.825C255.587 296.425 257.554 322.825 257.887 335.825C259.087 352.225 262.72 353.992 264.387 352.825C267.187 347.225 267.887 320.492 267.887 307.825C269.087 305.025 266.72 298.992 265.387 296.325C261.787 286.725 268.22 287.992 271.887 289.825C273.487 286.625 271.22 258.159 269.887 244.325C273.487 253.525 276.054 269.159 276.887 275.825L278.887 316.825C280.487 328.825 283.887 334.492 285.387 335.825C290.987 335.825 287.72 326.492 285.387 321.825H293.887C295.887 306.992 299.987 277.625 300.387 278.825C300.787 280.025 301.554 284.659 301.887 286.825C305.487 296.825 306.72 292.992 306.887 289.825C304.887 283.825 304.387 274.325 304.387 270.325C312.787 277.525 315.887 268.659 316.387 263.325C319.987 263.725 321.22 258.825 321.387 256.325C322.187 252.725 316.72 237.159 313.887 229.825C318.687 226.625 323.554 238.159 325.387 244.325V201.325C326.187 195.725 327.72 198.992 328.387 201.325L333.887 246.325C344.687 238.325 343.387 247.325 341.387 252.825C337.387 262.825 345.72 259.325 350.387 256.325C359.187 251.525 355.054 240.659 351.887 235.825C349.487 223.425 354.22 221.992 356.887 222.825C364.487 229.625 362.387 222.992 360.387 218.825C357.987 208.825 362.72 210.325 365.387 212.325C369.787 221.125 370.887 205.992 370.887 197.325C374.487 185.725 376.054 196.825 376.387 203.825C375.987 208.225 379.554 203.992 381.387 201.325C392.187 194.525 385.887 214.492 381.387 225.325C385.387 223.725 390.72 235.325 392.887 241.325C404.887 251.325 400.554 237.159 396.887 228.825C398.087 216.425 403.72 226.992 406.387 233.825C408.787 237.825 408.387 209.825 407.887 195.325C409.087 188.525 410.054 192.492 410.387 195.325L414.387 233.825C419.187 239.825 422.387 233.992 423.387 230.325C427.387 217.925 425.054 188.492 423.387 175.325C424.187 169.325 428.054 171.492 429.887 173.325L431.887 143.325C433.487 138.525 434.887 141.325 435.387 143.325L436.387 175.325C436.787 184.925 449.554 184.325 455.887 182.825C450.687 178.425 448.054 173.659 447.387 171.825C447.787 165.825 454.554 167.992 457.887 169.825L461.387 128.825C462.987 124.425 464.054 126.992 464.387 128.825L465.887 165.825L470.887 157.825C481.687 151.825 473.721 170.992 468.387 181.325C474.787 180.125 476.721 188.492 476.887 192.825C478.887 201.225 487.387 200.992 491.387 199.825C488.187 188.625 492.721 186.159 495.387 186.325C499.787 185.525 494.554 168.325 491.387 159.825C492.587 154.625 499.221 164.325 502.387 169.825V132.825C503.987 127.225 505.721 130.492 506.387 132.825L508.887 161.825C510.087 171.825 515.054 172.659 517.388 171.825C526.588 171.425 521.221 153.325 517.388 144.325C519.788 139.525 525.388 144.325 527.888 147.325C535.088 151.325 529.554 139.325 525.888 132.825C525.088 128.425 528.888 129.659 530.888 130.825C537.288 135.625 539.221 112.492 539.388 100.325C540.988 94.7253 542.054 97.9919 542.388 100.325V128.825C544.388 121.225 549.888 116.659 552.388 115.325C553.188 125.725 548.721 135.992 546.388 139.825C549.988 151.025 551.888 146.159 552.388 142.325C549.188 125.525 555.721 122.992 559.388 123.825C557.788 111.825 561.388 109.825 563.388 110.325C570.188 106.325 570.221 77.3252 569.388 63.3252C570.588 58.1252 572.221 61.1586 572.888 63.3252L574.388 71.3252C575.988 90.9252 584.054 94.1586 587.888 93.3252C582.288 84.1252 583.554 57.1586 584.888 44.8252C584.888 42.9919 585.888 39.1252 589.888 38.3252C591.392 38.3252 594.498 39.6252 594.888 44.8252L596.388 64.8252C600.788 84.0252 607.221 83.8252 609.888 81.3252C603.488 77.3252 603.554 69.6586 604.388 66.3252Z" fill="url(#paint1_linear_101_5)"/>
<path d="M393.388 343.825C458.588 307.025 593.888 297.492 653.388 297.325L652.888 577.825L188.388 574.825C216.788 572.025 269.221 493.325 291.888 454.325C331.088 389.925 375.888 353.825 393.388 343.825Z" fill="url(#paint2_linear_101_5)"/>
<path d="M397.388 553.325C396.988 560.925 392.554 571.825 390.388 576.325L653.388 577.825V430.325C628.988 429.125 608.388 448.492 601.388 458.325C588.988 474.325 564.888 469.992 554.388 465.825C512.388 449.825 490.888 478.159 485.388 494.325C480.188 515.925 446.221 518.325 429.888 516.825C408.688 518.425 399.388 541.825 397.388 553.325Z" fill="url(#paint3_linear_101_5)"/>
<path d="M496.388 554.825C494.788 568.025 473.054 579.659 462.388 583.825H653.388V483.825C640.588 477.025 630.221 483.659 626.888 487.825C619.288 499.025 599.054 497.825 589.888 495.825C570.688 490.225 558.554 501.825 554.888 508.325C550.088 521.925 535.888 525.992 529.388 526.325C506.588 527.125 497.888 545.659 496.388 554.825Z" fill="url(#paint4_linear_101_5)"/>
<defs>
<linearGradient id="paint0_linear_101_5" x1="436.638" y1="44.3252" x2="436.388" y2="291.825" gradientUnits="userSpaceOnUse">
<stop stop-color="#02092D"/>
<stop offset="1" stop-color="#242035"/>
</linearGradient>
<linearGradient id="paint1_linear_101_5" x1="283.888" y1="205.825" x2="326.444" y2="577.842" gradientUnits="userSpaceOnUse">
<stop stop-color="#020B28"/>
<stop offset="1" stop-color="#3F2D3D"/>
</linearGradient>
<linearGradient id="paint2_linear_101_5" x1="405.888" y1="343.825" x2="333.888" y2="645.325" gradientUnits="userSpaceOnUse">
<stop stop-color="#0F1E40"/>
<stop offset="1" stop-color="#804B55"/>
</linearGradient>
<linearGradient id="paint3_linear_101_5" x1="455.388" y1="495.325" x2="402.388" y2="587.325" gradientUnits="userSpaceOnUse">
<stop stop-color="#121F41"/>
<stop offset="1" stop-color="#613E4F"/>
</linearGradient>
<linearGradient id="paint4_linear_101_5" x1="538.388" y1="524.325" x2="449.888" y2="595.325" gradientUnits="userSpaceOnUse">
<stop stop-color="#0B1225"/>
<stop offset="1" stop-color="#623F4F"/>
</linearGradient>
</defs>
</svg>
