<svg width="654" height="540" viewBox="0 0 654 540" fill="none" xmlns="http://www.w3.org/2000/svg">
<path d="M516 0H654V345.5H223.5C229.5 343.9 231.667 334.833 232 330.5C232.8 324.9 224.667 309.833 220.5 303L232 314L228 273.5L240 306C251.6 333.6 270.5 318.833 278.5 308L271 263.5L278.5 256C286.5 250.8 292.5 256.833 294.5 260.5C306.9 278.5 311.333 249.667 312 233C314.8 229 310.833 206 308.5 195C310.5 187.8 315.333 203.667 317.5 212.5C321.9 226.5 327 212.667 329 204C329.4 193.2 334.5 191.5 337 192C342.6 191.6 341 161.833 339.5 147C340.7 139 345 162.333 347 175C349.8 185.4 353.833 189 355.5 189.5L370.5 212.5L374.5 170L368.5 160C362.1 159.2 357.167 147.333 355.5 141.5C356.7 136.7 360.667 140.5 362.5 143C364.5 145.8 368 145.833 369.5 145.5C367.5 142.5 357 103.5 361.5 108C365.1 111.6 371.667 130.5 374.5 139.5C374.5 136.7 375.833 131 376.5 128.5C376.067 140.9 378.653 149.333 380 152C383.2 143.2 381.333 131.667 380 127C377.6 121.8 375.333 112.167 374.5 108C375.3 112 378.5 114.667 380 115.5L376 96.5L380 101.5L377 66L382 92.5L385 84L386.5 108C391.7 126 399.667 129.833 403 129.5L395 115.5L406 114.5C403.6 106.5 403 83.5 403 73C407.8 86.2 413.667 86.8333 416 85.5C421.2 80.3 409.5 70.3333 403 66C407.8 69.2 412.667 65.6667 414.5 63.5V48.5C420.1 45.7 418.5 41 417 39C413.4 36.2 409.167 25.5 407.5 20.5C407.5 15.7 416.833 22.5 421.5 26.5L414.5 0H421.5L431 31C440.488 23.4092 440.224 36.8257 438.748 45.6217C440.67 37.2688 449.572 32.4234 454 31C444 21.8 442.833 13.5 443.5 10.5C447.5 6.1 457.833 10.6667 462.5 13.5C460.9 7.9 453.833 2.16667 450.5 0H462.5C479.3 0 482.833 12 482.5 18C490.1 16 493.333 22.8333 494 26.5C494 23.7 498.333 21.3333 500.5 20.5C494.1 18.5 490.5 6 489.5 0H508.5C510.5 8.4 514.333 3.5 516 0Z" fill="url(#paint0_linear_102_4)"/>
<path d="M615 0.5H653.5V533.5C436.333 533.833 13.4999 529 7.9997 529C-7.57273 529 5.99975 437.833 7.99975 416C9.59975 410 10.9997 413.5 11.4997 416L17.4997 457C29.8997 449 28.3331 467.333 25.9997 477.5L47.4998 480C58.6998 469.2 52.1664 446.833 47.4998 437C45.8998 434.2 44.1664 429.167 43.4998 427C43.4998 420.6 49.8331 424.333 52.9998 427L56.4998 382C57.6998 377.2 59.3331 380 59.9998 382V422C61.5998 415.6 68.9997 411 72.4997 409.5C72.4997 417.9 67.1664 431.333 64.4998 437C72.4998 437.8 73.1664 448 72.4997 453C84.4997 466.6 86.8331 459.667 86.4997 454.5C77.2997 432.1 90.3331 437.833 97.9997 443.5L95.4997 395L100.5 388C96.8997 374.8 105.666 379.833 110.5 384C103.7 362.8 109.333 368.167 113 373.5V336.5C113.8 332.5 115 334.5 115.5 336L116.5 369C117.3 366.2 120.5 361.833 122 360C119.6 363.2 119 377.333 119 384C125.8 404 136.833 393.333 141.5 385.5C139.1 362.3 143.5 355.167 146 354.5C149.6 346.9 143.5 333.333 140 327.5C144.8 326.3 152 333 155 336.5C150.6 327.7 148.166 306.167 147.5 296.5C151.1 298.5 160 327.333 164 341.5C187.2 335.5 183.666 325.333 179 321C176.6 313.4 185.333 315.167 190 317C179.6 302.2 186.333 301.167 191 302.5C189 295.7 191.166 269.333 192.5 257C197.677 264.966 197.667 289.125 197.008 300.355C197.302 297.725 205.076 288.078 209 283.5C209.8 289.1 207.333 305.5 206 313C215.2 308.2 217.833 330.667 218 342.5C218.8 324.9 223.666 305.833 226 298.5C227.6 302.1 226.666 320.333 226 329C224.8 340.2 227.833 335.667 229.5 332C232.7 324 235.5 328.667 236.5 332C246.5 342.8 247.666 321.5 247 309.5C243.4 306.3 241.5 297.833 241 294C241.8 291.2 244.666 293.5 246 295V276.5C246 269.7 242 262.333 240 259.5C238 250.7 240.833 251.833 242.5 253.5C245.3 253.9 245 247.667 244.5 244.5L240.5 208C240.1 203.2 241.666 206 242.5 208L246 233C251.2 219 251.5 238.833 251 250.5C256.2 252.1 258.166 278.5 258.5 291.5C259.7 307.9 263.333 309.667 265 308.5C267.799 302.9 268.5 276.167 268.5 263.5C269.7 260.7 267.333 254.667 266 252C262.4 242.4 268.833 243.667 272.5 245.5C274.1 242.3 271.833 213.833 270.5 200C274.1 209.2 276.666 224.833 277.5 231.5L279.5 272.5C281.1 284.5 284.5 290.167 286 291.5C291.6 291.5 288.333 282.167 286 277.5H294.5C296.5 262.667 300.6 233.3 301 234.5C301.4 235.7 302.166 240.333 302.5 242.5C306.1 252.5 307.333 248.667 307.5 245.5C305.5 239.5 305 230 305 226C313.4 233.2 316.5 224.333 317 219C320.6 219.4 321.833 214.5 322 212C322.799 208.4 317.333 192.833 314.5 185.5C319.299 182.3 324.166 193.833 326 200V157C326.799 151.4 328.333 154.667 329 157L334.5 202C345.299 194 344 203 342 208.5C338 218.5 346.333 215 351 212C359.799 207.2 355.666 196.333 352.5 191.5C350.1 179.1 354.833 177.667 357.5 178.5C365.1 185.3 362.999 178.667 360.999 174.5C358.599 164.5 363.333 166 365.999 168C370.399 176.8 371.499 161.667 371.499 153C375.099 141.4 376.666 152.5 376.999 159.5C376.599 163.9 380.166 159.667 381.999 157C392.799 150.2 386.499 170.167 381.999 181C385.999 179.4 391.333 191 393.499 197C405.499 207 401.166 192.833 397.499 184.5C398.699 172.1 404.333 182.667 407 189.5C409.4 193.5 409 165.5 408.5 151C409.7 144.2 410.666 148.167 411 151L415 189.5C419.799 195.5 423 189.667 424 186C428 173.6 425.666 144.167 424 131C424.799 125 428.666 127.167 430.5 129L432.5 99C434.1 94.2 435.5 97 436 99L437 131C437.4 140.6 450.166 140 456.5 138.5C451.3 134.1 448.666 129.333 448 127.5C448.4 121.5 455.166 123.667 458.5 125.5L462 84.5C463.6 80.1 464.666 82.6667 465 84.5L466.5 121.5L471.5 113.5C482.3 107.5 474.333 126.667 469 137C475.4 135.8 477.333 144.167 477.5 148.5C479.5 156.9 488 156.667 492 155.5C488.8 144.3 493.333 141.833 496 142C500.4 141.2 495.166 124 492 115.5C493.2 110.3 499.833 120 503 125.5V88.5C504.6 82.9 506.333 86.1667 507 88.5L509.5 117.5C510.7 127.5 515.667 128.333 518 127.5C527.2 127.1 521.833 109 518 100C520.4 95.2 526 100 528.5 103C535.7 107 530.167 95 526.5 88.5C525.7 84.1 529.5 85.3333 531.5 86.5C537.9 91.3 539.833 68.1667 540 56C541.6 50.4 542.667 53.6667 543 56V84.5C545 76.9 550.5 72.3333 553 71C553.8 81.4 549.333 91.6667 547 95.5C550.6 106.7 552.5 101.833 553 98C549.8 81.2 556.333 78.6667 560 79.5C558.4 67.5 562 65.5 564 66C570.8 62 570.833 33 570 19C571.2 13.8 572.833 16.8333 573.5 19L575 27C576.6 46.6 584.667 49.8333 588.5 49C582.9 39.8 584.167 12.8333 585.5 0.5H595.5L597 20.5C601.4 39.7 607.833 39.5 610.5 37C604.1 33 604.167 25.3333 605 22C616.6 26.8 616.5 9.66667 615 0.5Z" fill="url(#paint1_linear_102_4)"/>
<path d="M394 299.5C459.2 262.7 594.5 253.167 654 253L653.5 533.5L189 530.5C217.4 527.7 269.833 449 292.5 410C331.7 345.6 376.5 309.5 394 299.5Z" fill="url(#paint2_linear_102_4)"/>
<path d="M398 509C397.6 516.6 393.167 527.5 391 532L653.5 533.5V386C629.1 384.8 609 404.167 602 414C589.6 430 565.5 425.667 555 421.5C513 405.5 491.5 433.833 486 450C480.8 471.6 446.833 474 430.5 472.5C409.3 474.1 400 497.5 398 509Z" fill="url(#paint3_linear_102_4)"/>
<path d="M497 510.5C495.4 523.7 473.667 535.333 463 539.5H653.5V439.5C640.7 432.7 630.833 439.333 627.5 443.5C619.9 454.7 599.667 453.5 590.5 451.5C571.3 445.9 559.167 457.5 555.5 464C550.7 477.6 536.5 481.667 530 482C507.2 482.8 498.5 501.333 497 510.5Z" fill="url(#paint4_linear_102_4)"/>
<defs>
<linearGradient id="paint0_linear_102_4" x1="437.25" y1="0" x2="437" y2="247.5" gradientUnits="userSpaceOnUse">
<stop stop-color="#02092D"/>
<stop offset="1" stop-color="#242035"/>
</linearGradient>
<linearGradient id="paint1_linear_102_4" x1="284.5" y1="161.5" x2="327.056" y2="533.516" gradientUnits="userSpaceOnUse">
<stop stop-color="#020B28"/>
<stop offset="1" stop-color="#3F2D3D"/>
</linearGradient>
<linearGradient id="paint2_linear_102_4" x1="406.5" y1="299.5" x2="334.5" y2="601" gradientUnits="userSpaceOnUse">
<stop stop-color="#0F1E40"/>
<stop offset="1" stop-color="#804B55"/>
</linearGradient>
<linearGradient id="paint3_linear_102_4" x1="456" y1="451" x2="403" y2="543" gradientUnits="userSpaceOnUse">
<stop stop-color="#121F41"/>
<stop offset="1" stop-color="#613E4F"/>
</linearGradient>
<linearGradient id="paint4_linear_102_4" x1="539" y1="480" x2="450.5" y2="551" gradientUnits="userSpaceOnUse">
<stop stop-color="#0B1225"/>
<stop offset="1" stop-color="#623F4F"/>
</linearGradient>
</defs>
</svg>
