<svg width="21" height="20" viewBox="0 0 21 20" fill="none" xmlns="http://www.w3.org/2000/svg">
<path d="M10.8278 19.8996C16.2952 19.8996 20.7273 15.4674 20.7273 10.0001C20.7273 4.53274 16.2952 0.100586 10.8278 0.100586C5.3605 0.100586 0.928345 4.53274 0.928345 10.0001C0.928345 15.4674 5.3605 19.8996 10.8278 19.8996Z" fill="white"/>
<path d="M5.4787 15.6019L6.30461 12.5225C5.83774 11.6795 5.59081 10.7344 5.59081 9.77513C5.59081 6.64038 8.14229 4.08887 11.277 4.08887C14.4118 4.08887 16.9633 6.64038 16.9633 9.77513C16.9633 12.9099 14.4118 15.4614 11.277 15.4614C10.3362 15.4614 9.40672 15.2244 8.57372 14.7717L5.4787 15.6004V15.6019ZM8.72838 13.618L8.92281 13.7343C9.63802 14.1601 10.4526 14.3857 11.277 14.3857C13.82 14.3857 15.889 12.3167 15.889 9.77371C15.889 7.23072 13.82 5.1617 11.277 5.1617C8.73405 5.1617 6.66503 7.23072 6.66503 9.77371C6.66503 10.6138 6.89776 11.4397 7.33909 12.1649L7.45831 12.3607L6.99711 14.0806L8.72695 13.6166L8.72838 13.618Z" fill="#020413"/>
<path fill-rule="evenodd" clip-rule="evenodd" d="M13.3928 10.5655C13.1587 10.425 12.8536 10.2689 12.5783 10.3824C12.3668 10.469 12.232 10.7996 12.0943 10.9685C12.0234 11.0551 11.9397 11.0693 11.8318 11.0253C11.0372 10.7088 10.4298 10.1795 9.9913 9.44868C9.9175 9.33515 9.93027 9.24574 10.0197 9.14073C10.1516 8.98463 10.3177 8.80725 10.3546 8.59723C10.39 8.3872 10.2921 8.1417 10.2056 7.95438C10.0949 7.71598 9.97 7.37399 9.73159 7.23918C9.51164 7.1143 9.22215 7.18383 9.0249 7.34419C8.68715 7.61949 8.52254 8.05089 8.52822 8.47945C8.52822 8.60149 8.54526 8.7221 8.57364 8.83988C8.64175 9.12228 8.7723 9.38623 8.91989 9.63599C9.03057 9.82472 9.1512 10.0078 9.28034 10.1852C9.70464 10.7627 10.234 11.2637 10.8456 11.6383C11.1507 11.8256 11.4799 11.9902 11.8219 12.1023C12.2036 12.2286 12.5442 12.3606 12.9586 12.2812C13.3914 12.1988 13.8171 11.9321 13.9888 11.5149C14.0399 11.3914 14.0655 11.2538 14.0371 11.1232C13.9789 10.8536 13.6142 10.6932 13.3957 10.5641L13.3928 10.5655Z" fill="#020413"/>
</svg>
